<svg width="89" height="30" viewBox="0 0 89 30" fill="none" xmlns="http://www.w3.org/2000/svg">
<g clip-path="url(#clip0)">
<path d="M33.7657 2.26356C33.7657 1.84722 33.8892 1.44024 34.1205 1.0941C34.3519 0.747964 34.6807 0.478228 35.0654 0.319022C35.4501 0.159815 35.8734 0.118292 36.2817 0.199706C36.69 0.281119 37.0649 0.481811 37.3592 0.77639C37.6534 1.07097 37.8536 1.4462 37.9345 1.8546C38.0154 2.263 37.9734 2.68622 37.8137 3.07072C37.654 3.45522 37.3839 3.78372 37.0374 4.01464C36.691 4.24557 36.2839 4.36856 35.8675 4.36805C35.5913 4.36805 35.3178 4.31359 35.0626 4.2078C34.8074 4.10201 34.5756 3.94695 34.3804 3.7515C34.1851 3.55605 34.0304 3.32403 33.9249 3.06872C33.8194 2.8134 33.7653 2.5398 33.7657 2.26356ZM42.9164 4.36805C43.3326 4.36805 43.7395 4.24462 44.0856 4.01338C44.4317 3.78213 44.7014 3.45346 44.8607 3.06891C45.02 2.68437 45.0616 2.26123 44.9804 1.853C44.8992 1.44477 44.6988 1.06978 44.4045 0.775465C44.1102 0.481148 43.7352 0.280715 43.327 0.199513C42.9187 0.118311 42.4956 0.159987 42.111 0.31927C41.7265 0.478554 41.3978 0.748291 41.1666 1.09437C40.9353 1.44045 40.8119 1.84733 40.8119 2.26356C40.8119 2.82171 41.0336 3.35699 41.4283 3.75166C41.823 4.14632 42.3582 4.36805 42.9164 4.36805Z" fill="#E42313"/>
<path d="M86.4352 5.82319C86.4352 4.73835 87.0611 4.32111 88.2606 4.32111H88.9491V0.0573719C84.954 -0.440716 81.7464 2.34701 81.7464 6.38387V29.5515H86.2448V10.2538H88.8526V5.82058L86.4352 5.82319Z" fill="#000319"/>
<path d="M76.2283 5.82319C76.2283 4.73835 76.8541 4.32111 78.0537 4.32111H78.7552V0.0573719C74.7497 -0.440716 71.5421 2.34701 71.5421 6.38387V29.5515H76.0405V10.2538H78.6483V5.82058L76.2283 5.82319Z" fill="#000319"/>
<path d="M54.242 17.7851V29.5202H58.8552V18.3067C58.8552 13.2893 62.0967 9.7766 68.444 9.7766V5.16342C60.5137 5.16342 54.242 9.31502 54.242 17.7851Z" fill="#000319"/>
<path d="M39.4376 25.6033C37.9268 25.6007 36.4507 25.1503 35.1959 24.309C33.941 23.4678 32.9637 22.2734 32.3874 20.8768C31.8112 19.4803 31.6619 17.9442 31.9584 16.4629C32.2549 14.9815 32.9839 13.6212 34.0533 12.5541C35.1227 11.4869 36.4844 10.7607 37.9664 10.4672C39.4484 10.1737 40.9841 10.3262 42.3795 10.9053C43.7748 11.4844 44.9672 12.4641 45.8059 13.7207C46.6446 14.9773 47.092 16.4543 47.0915 17.9651C47.0904 18.9691 46.8916 19.9632 46.5064 20.8905C46.1212 21.8177 45.5572 22.6601 44.8465 23.3693C44.1357 24.0786 43.2923 24.6409 42.3642 25.0242C41.4361 25.4075 40.4417 25.6043 39.4376 25.6033ZM51.3734 17.9781C51.3703 15.6055 50.6638 13.2872 49.3431 11.3162C48.0224 9.34523 46.1469 7.81015 43.9538 6.90507C41.7606 6 39.3484 5.76559 37.022 6.23148C34.6957 6.69738 32.5597 7.84266 30.8842 9.52249C29.2088 11.2023 28.0691 13.3413 27.6093 15.6688C27.1494 17.9964 27.3901 20.408 28.3009 22.5988C29.2117 24.7896 30.7517 26.6611 32.7261 27.9766C34.7005 29.2921 37.0207 29.9927 39.3933 29.9896C40.9686 29.9875 42.5281 29.6752 43.9827 29.0705C45.4373 28.4657 46.7586 27.5804 47.871 26.465C48.9835 25.3496 49.8654 24.0261 50.4663 22.5699C51.0673 21.1137 51.3755 19.5534 51.3734 17.9781Z" fill="#E42313"/>
<path d="M20.1791 0.159075V7.74513C17.9854 5.89396 15.2078 4.87791 12.3374 4.87656C5.5233 4.88439 0 10.5068 0 17.4409C0 24.375 5.5233 29.9896 12.3374 29.9896C17.4435 29.9896 21.7516 26.9463 23.5275 22.1662C24.4402 19.7097 24.6775 17.1879 24.6775 14.0169V0.159075H20.1791ZM12.2696 25.512C7.90682 25.512 4.36805 21.8872 4.36805 17.4279C4.36805 12.9685 7.90682 9.33067 12.2696 9.33067C16.6325 9.33067 20.1739 12.9555 20.1739 17.4279C20.1739 21.9002 16.6351 25.512 12.2696 25.512Z" fill="#000319"/>
</g>
<defs>
<clipPath id="clip0">
<rect width="88.9464" height="30" fill="white"/>
</clipPath>
</defs>
</svg>
