<svg width="24" height="34" viewBox="0 0 24 34" fill="none" xmlns="http://www.w3.org/2000/svg">
<path d="M12.06 19.6122C10.5487 19.6096 9.0721 19.159 7.81679 18.3175C6.56149 17.4759 5.58384 16.2811 5.0074 14.8841C4.43096 13.487 4.2816 11.9505 4.57821 10.4686C4.87482 8.98668 5.60408 7.62597 6.67381 6.55842C7.74355 5.49087 9.10575 4.7644 10.5883 4.47082C12.0708 4.17725 13.607 4.32974 15.0029 4.90904C16.3987 5.48834 17.5915 6.46843 18.4305 7.72546C19.2695 8.98248 19.717 10.46 19.7165 11.9713C19.7155 12.9757 19.5166 13.9701 19.1313 14.8977C18.746 15.8253 18.1817 16.6679 17.4707 17.3774C16.7598 18.087 15.916 18.6495 14.9876 19.0329C14.0592 19.4164 13.0644 19.6132 12.06 19.6122ZM24 11.9843C23.9969 9.61097 23.2901 7.29181 21.9689 5.32015C20.6478 3.34848 18.7716 1.81286 16.5777 0.907468C14.3838 0.00207915 11.9707 -0.232413 9.64357 0.233646C7.3164 0.699705 5.1797 1.84538 3.50366 3.5258C1.82762 5.20621 0.687526 7.3459 0.227539 9.67427C-0.232447 12.0026 0.00833764 14.4151 0.919447 16.6067C1.83056 18.7982 3.37107 20.6703 5.34617 21.9863C7.32128 23.3023 9.64227 24.0031 12.0156 24C13.5915 23.9979 15.1515 23.6855 16.6067 23.0806C18.0618 22.4756 19.3835 21.59 20.4963 20.4742C21.6092 19.3584 22.4914 18.0344 23.0925 16.5777C23.6937 15.121 24.002 13.5602 24 11.9843Z" fill="#1D1D1B"/>
<path d="M11.9999 34L5 25C5 25 7.33326 27 12 27C16.6667 27 19 25 19 25L11.9999 34Z" fill="#1D1D1B"/>
</svg>
