<svg width="50" height="50" viewBox="0 0 50 50" fill="none" xmlns="http://www.w3.org/2000/svg">
<path d="M25.0025 50.005C38.811 50.005 50.005 38.811 50.005 25.0025C50.005 11.194 38.811 0 25.0025 0C11.194 0 0 11.194 0 25.0025C0 38.811 11.194 50.005 25.0025 50.005Z" fill="#E1251B"/>
<path d="M10.3497 29.8852V23.1053L8.85193 23.4748L8.45752 21.9221L10.9538 21.1782H12.2518V29.8852H10.3497Z" fill="white"/>
<path d="M20.6287 28.7568C20.2945 29.1679 19.8705 29.4969 19.3893 29.7184C18.9081 29.94 18.3825 30.0483 17.8529 30.0349C17.325 30.05 16.8007 29.9429 16.3209 29.7221C15.8412 29.5013 15.4189 29.1727 15.087 28.7618C14.3594 27.8576 13.9819 26.7215 14.0236 25.5616C13.9853 24.4036 14.3665 23.2707 15.097 22.3714C15.4315 21.9594 15.8562 21.6298 16.3384 21.4082C16.8206 21.1866 17.3474 21.0788 17.8779 21.0933C18.4042 21.0794 18.9266 21.1871 19.4045 21.4079C19.8825 21.6287 20.3031 21.9567 20.6337 22.3664C21.3652 23.2669 21.7449 24.4023 21.7021 25.5616C21.7439 26.7217 21.3624 27.8573 20.6287 28.7568ZM16.4999 27.5387C16.6418 27.7773 16.8436 27.9748 17.0853 28.1114C17.327 28.248 17.6002 28.3191 17.8779 28.3175C18.1529 28.3189 18.4234 28.2482 18.6626 28.1125C18.9018 27.9767 19.1011 27.7806 19.2408 27.5437C19.6019 26.9424 19.7758 26.2471 19.7401 25.5467C19.7661 24.8519 19.5797 24.1657 19.2059 23.5796C19.0655 23.3415 18.8655 23.144 18.6257 23.0065C18.3858 22.8691 18.1143 22.7965 17.8379 22.7958C17.5618 22.7948 17.2904 22.8668 17.0511 23.0045C16.8117 23.1421 16.613 23.3405 16.475 23.5796C16.1098 24.1792 15.9357 24.8757 15.9757 25.5766C15.9524 26.2681 16.1348 26.951 16.4999 27.5387Z" fill="white"/>
<path d="M29.6306 28.7568C29.2944 29.1669 28.8694 29.495 28.3876 29.7165C27.9058 29.9379 27.3799 30.0468 26.8498 30.0349C26.3219 30.0496 25.7978 29.9424 25.3181 29.7216C24.8384 29.5008 24.4161 29.1724 24.084 28.7618C23.3597 27.856 22.9842 26.7206 23.0255 25.5616C22.9845 24.4032 23.366 23.2694 24.0989 22.3714C24.4406 21.9711 24.865 21.6496 25.343 21.4292C25.8209 21.2088 26.341 21.0946 26.8673 21.0946C27.3936 21.0946 27.9137 21.2088 28.3916 21.4292C28.8695 21.6496 29.294 21.9711 29.6356 22.3714C30.3671 23.2719 30.7468 24.4073 30.704 25.5666C30.7423 26.7246 30.3612 27.8575 29.6306 28.7568ZM25.5018 27.5387C25.6437 27.7755 25.8445 27.9715 26.0847 28.1075C26.3249 28.2436 26.5962 28.3152 26.8723 28.3152C27.1483 28.3152 27.4197 28.2436 27.6598 28.1075C27.9 27.9715 28.1008 27.7755 28.2427 27.5387C28.6039 26.9374 28.7777 26.2421 28.742 25.5417C28.7695 24.8474 28.5849 24.1613 28.2128 23.5746C28.0716 23.3361 27.8708 23.1384 27.63 23.001C27.3893 22.8635 27.117 22.7911 26.8398 22.7908C26.5662 22.7902 26.2972 22.8608 26.0591 22.9955C25.821 23.1303 25.6221 23.3247 25.4819 23.5596C25.1187 24.1601 24.9448 24.8559 24.9826 25.5566C24.9497 26.2548 25.1309 26.9463 25.5018 27.5387Z" fill="white"/>
<path d="M35.3922 24.9226C35.2014 25.1284 34.9694 25.2916 34.7114 25.4017C34.4533 25.5118 34.1749 25.5663 33.8944 25.5617C33.6138 25.5702 33.3347 25.518 33.0762 25.4085C32.8176 25.2991 32.5858 25.135 32.3967 24.9276C32.0089 24.4972 31.8015 23.9341 31.8175 23.355C31.799 22.7712 32.0126 22.2039 32.4116 21.7773C32.6028 21.5725 32.835 21.4102 33.093 21.3009C33.3511 21.1917 33.6292 21.138 33.9094 21.1433C34.1899 21.1351 34.469 21.1875 34.7274 21.2969C34.9859 21.4063 35.2177 21.5702 35.4071 21.7773C35.7957 22.2093 36.003 22.7742 35.9863 23.355C35.999 23.9348 35.7859 24.4969 35.3922 24.9226ZM32.6513 29.8852L38.9418 21.2431H40.4396L34.1191 29.8852H32.6513ZM33.8994 24.4633C34.015 24.4658 34.1292 24.4381 34.2307 24.383C34.3323 24.3278 34.4177 24.2471 34.4785 24.1488C34.624 23.9194 34.6971 23.6515 34.6882 23.3799C34.6992 23.096 34.6148 22.8166 34.4486 22.5861C34.3868 22.4872 34.3007 22.4058 34.1984 22.3499C34.0961 22.2939 33.9811 22.2652 33.8645 22.2666C33.7494 22.2636 33.6355 22.2905 33.5339 22.3448C33.4324 22.399 33.3467 22.4788 33.2853 22.5761C33.1379 22.8084 33.0647 23.0801 33.0756 23.355C33.069 23.6268 33.1475 23.8939 33.3003 24.1188C33.3614 24.2236 33.4488 24.3105 33.5539 24.3709C33.659 24.4314 33.7781 24.4632 33.8994 24.4633ZM40.7042 29.366C40.5139 29.5726 40.2821 29.7368 40.024 29.8478C39.7659 29.9588 39.4873 30.014 39.2064 30.01C38.9254 30.0182 38.6459 29.9654 38.3873 29.855C38.1288 29.7447 37.8972 29.5795 37.7087 29.3709C37.3284 28.9353 37.1188 28.3766 37.1188 27.7983C37.1188 27.22 37.3284 26.6613 37.7087 26.2257C37.8994 26.0199 38.1314 25.8567 38.3895 25.7466C38.6475 25.6364 38.9259 25.582 39.2064 25.5866C39.4874 25.579 39.7666 25.6322 40.0251 25.7425C40.2836 25.8528 40.5153 26.0176 40.7042 26.2257C41.0919 26.6561 41.2993 27.2192 41.2833 27.7983C41.2947 28.3677 41.0874 28.9197 40.7042 29.341V29.366ZM39.2064 28.8667C39.3233 28.8696 39.4389 28.8416 39.5414 28.7854C39.644 28.7293 39.7299 28.6472 39.7906 28.5472C39.9338 28.3168 40.0067 28.0496 40.0002 27.7783C40.0061 27.5059 39.9257 27.2385 39.7706 27.0145C39.7076 26.9152 39.6206 26.8334 39.5176 26.7767C39.4147 26.72 39.299 26.6902 39.1815 26.69C39.0665 26.6874 38.9528 26.7146 38.8513 26.7688C38.7499 26.823 38.6641 26.9025 38.6023 26.9995C38.4549 27.2318 38.3817 27.5034 38.3927 27.7783C38.3851 28.051 38.4656 28.3189 38.6223 28.5422C38.6844 28.6408 38.7706 28.7219 38.8729 28.7778C38.9751 28.8337 39.0899 28.8626 39.2064 28.8617V28.8667Z" fill="white"/>
<path d="M10.1001 38.7019V32.5312H12.9808C13.2723 32.5095 13.5652 32.5465 13.8422 32.6399C14.1192 32.7334 14.3746 32.8815 14.5934 33.0754C14.7617 33.2432 14.8877 33.4486 14.961 33.6748C15.0342 33.9009 15.0525 34.1413 15.0145 34.3759C14.9764 34.6106 14.8831 34.8328 14.7421 35.0242C14.6012 35.2156 14.4167 35.3707 14.2039 35.4768C14.5397 35.5893 14.8396 35.7892 15.0726 36.0559C15.2752 36.3314 15.3774 36.6679 15.3622 37.0095C15.3754 37.2553 15.3254 37.5005 15.217 37.7216C15.1087 37.9427 14.9455 38.1323 14.7431 38.2726C14.2367 38.5867 13.6456 38.7367 13.0507 38.7019H10.1001ZM11.4231 35.0274H12.6712C13.3253 35.0274 13.6697 34.8028 13.6697 34.3534C13.6734 34.2623 13.6544 34.1717 13.6143 34.0897C13.5742 34.0078 13.5143 33.9371 13.4401 33.8841C13.241 33.7621 13.0091 33.7046 12.7761 33.7194H11.4231V35.0274ZM11.4231 37.5237H13.0357C13.6747 37.5237 13.9943 37.294 13.9943 36.8347C13.9943 36.3904 13.6598 36.1657 12.9958 36.1657H11.4231V37.5237Z" fill="white"/>
<path d="M16.5552 38.7019V32.5312H19.3809C19.707 32.5102 20.034 32.5546 20.3426 32.6617C20.6513 32.7689 20.9354 32.9367 21.1782 33.1553C21.3588 33.3448 21.4989 33.5692 21.5899 33.8147C21.6808 34.0602 21.7209 34.3216 21.7074 34.5831C21.735 35.005 21.6194 35.4238 21.3793 35.7717C21.1391 36.1196 20.7886 36.3763 20.3844 36.5002L21.8822 38.7019H20.3046L18.9666 36.7049H17.9131V38.7019H16.5552ZM17.9131 35.5267H19.2911C19.5681 35.5436 19.8416 35.4584 20.0599 35.2871C20.1497 35.2052 20.2203 35.1047 20.2669 34.9925C20.3135 34.8804 20.3349 34.7594 20.3295 34.638C20.3386 34.5139 20.318 34.3893 20.2694 34.2747C20.2207 34.1601 20.1455 34.0588 20.0499 33.979C19.8219 33.8171 19.5453 33.7378 19.2661 33.7544H17.9131V35.5267Z" fill="white"/>
<path d="M22.5913 38.7019L25.2373 32.4863H26.4855L29.1315 38.7019H27.7136L27.1495 37.319H24.5384L23.9642 38.7019H22.5913ZM25.0227 36.1208H26.6652L25.8464 34.1238L25.0227 36.1208Z" fill="white"/>
<path d="M32.2963 38.7918C31.3287 38.8052 30.3927 38.448 29.6802 37.7933L30.479 36.8348C30.9872 37.2944 31.6414 37.5596 32.3262 37.5836C32.5535 37.5947 32.7791 37.5392 32.9752 37.4239C33.0503 37.3782 33.112 37.3135 33.1541 37.2364C33.1962 37.1593 33.2171 37.0724 33.2149 36.9845C33.2143 36.8974 33.191 36.8119 33.1472 36.7366C33.1034 36.6613 33.0407 36.5987 32.9652 36.5552C32.6516 36.3875 32.3153 36.2664 31.9667 36.1957C31.6785 36.132 31.3949 36.0486 31.118 35.9461C30.8955 35.8618 30.6856 35.7476 30.494 35.6066C30.3034 35.4712 30.1532 35.2866 30.0596 35.0724C29.9645 34.8275 29.9187 34.5662 29.9248 34.3036C29.9148 34.0468 29.9641 33.7912 30.0689 33.5565C30.1736 33.3219 30.331 33.1145 30.5289 32.9506C30.9701 32.6003 31.5239 32.4228 32.0866 32.4513C32.9183 32.4384 33.7285 32.7156 34.3781 33.2352L33.6742 34.2337C33.2123 33.8726 32.6518 33.6602 32.0666 33.6246C31.8606 33.6146 31.6565 33.6687 31.4825 33.7793C31.4115 33.828 31.3543 33.8942 31.3164 33.9714C31.2786 34.0487 31.2613 34.1344 31.2663 34.2203C31.2713 34.3062 31.2985 34.3893 31.3451 34.4617C31.3917 34.534 31.4562 34.593 31.5324 34.6331C31.8754 34.7932 32.2355 34.9138 32.6058 34.9925C33.1492 35.1049 33.6609 35.3368 34.1035 35.6715C34.2706 35.8204 34.4022 36.005 34.4886 36.2114C34.575 36.4179 34.614 36.6412 34.6028 36.8647C34.6148 37.1361 34.5617 37.4064 34.4479 37.6531C34.3341 37.8997 34.163 38.1156 33.9488 38.2826C33.4762 38.6438 32.8902 38.8244 32.2963 38.7918Z" fill="white"/>
<path d="M37.9432 38.7918C36.9757 38.8052 36.0397 38.448 35.3271 37.7933L36.1309 36.8348C36.6274 37.2923 37.2689 37.5609 37.9432 37.5936C38.1706 37.6056 38.3964 37.55 38.5922 37.4339C38.6673 37.3882 38.729 37.3235 38.7711 37.2464C38.8132 37.1692 38.8341 37.0824 38.8319 36.9945C38.8319 36.9079 38.8093 36.8227 38.7664 36.7475C38.7235 36.6722 38.6618 36.6094 38.5873 36.5652C38.273 36.399 37.9368 36.278 37.5888 36.2057C37.3053 36.1381 37.0267 36.0514 36.755 35.9461C36.533 35.8607 36.3232 35.7466 36.1309 35.6066C35.9406 35.4723 35.7918 35.2872 35.7016 35.0724C35.6019 34.8287 35.5542 34.5668 35.5618 34.3036C35.5529 34.0469 35.6027 33.7917 35.7074 33.5572C35.8121 33.3228 35.9689 33.1153 36.1659 32.9506C36.6071 32.6003 37.1609 32.4228 37.7235 32.4513C38.5555 32.4372 39.3661 32.7145 40.0151 33.2352L39.3112 34.2337C38.8493 33.8726 38.2887 33.6602 37.7036 33.6246C37.4976 33.6146 37.2935 33.6687 37.1195 33.7793C37.0559 33.8258 37.0042 33.8867 36.9686 33.957C36.933 34.0273 36.9146 34.105 36.9148 34.1837C36.9122 34.2747 36.9346 34.3647 36.9795 34.4439C37.0243 34.5231 37.09 34.5885 37.1694 34.6331C37.5124 34.7932 37.8725 34.9138 38.2428 34.9925C38.7866 35.1038 39.2984 35.3358 39.7405 35.6715C39.9076 35.8204 40.0392 36.0049 40.1256 36.2114C40.212 36.4179 40.251 36.6412 40.2398 36.8647C40.2535 37.1307 40.2046 37.3962 40.0971 37.6398C39.9896 37.8835 39.8264 38.0985 39.6207 38.2676C39.1436 38.6399 38.5474 38.8262 37.9432 38.7918Z" fill="white"/>
<path d="M25.0023 11.4628L21.7921 13.1503L22.4062 9.57563L19.8101 7.04443L23.3947 6.52521L25.0023 3.27509L26.6049 6.52521L30.1895 7.04443L27.5934 9.57563L28.2075 13.1503L25.0023 11.4628Z" fill="white"/>
<path d="M15.1275 12.1967L13.3102 13.1503L13.6597 11.1283L12.1919 9.70044L14.2189 9.40588L15.1275 7.56863L16.0311 9.40588L18.0581 9.70044L16.5953 11.1283L16.9398 13.1503L15.1275 12.1967Z" fill="white"/>
<path d="M9.25596 16.4902L8.15261 17.0694L8.3623 15.8412L7.47363 14.9725L8.70678 14.7928L9.25596 13.6745L9.81013 14.7928L11.0433 14.9725L10.1496 15.8412L10.3593 17.0694L9.25596 16.4902Z" fill="white"/>
<path d="M34.8725 12.1967L36.6898 13.1503L36.3403 11.1283L37.8081 9.70044L35.7811 9.40588L34.8725 7.56863L33.9689 9.40588L31.9419 9.70044L33.4097 11.1283L33.0602 13.1503L34.8725 12.1967Z" fill="white"/>
<path d="M40.7439 16.4902L41.8472 17.0694L41.6375 15.8412L42.5312 14.9725L41.298 14.7928L40.7439 13.6745L40.1897 14.7928L38.9565 14.9725L39.8502 15.8412L39.6405 17.0694L40.7439 16.4902Z" fill="white"/>
</svg>
