<svg width="50" height="50" viewBox="0 0 50 50" fill="none" xmlns="http://www.w3.org/2000/svg">
<path d="M25.0025 50.005C38.811 50.005 50.005 38.811 50.005 25.0025C50.005 11.194 38.811 0 25.0025 0C11.194 0 0 11.194 0 25.0025C0 38.811 11.194 50.005 25.0025 50.005Z" fill="#E1251B"/>
<path d="M41.3928 30.1198C41.3177 34.4179 39.5577 38.5147 36.4916 41.5277C33.4254 44.5408 29.2986 46.2291 24.9998 46.2291C20.7011 46.2291 16.5742 44.5408 13.5081 41.5277C10.442 38.5147 8.68195 34.4179 8.60693 30.1198C8.60693 21.0684 25.0023 3.49475 25.0023 3.49475C25.0023 3.49475 41.3928 21.0684 41.3928 30.1198Z" fill="white"/>
<path d="M29.241 43.6595H26.4302C26.1914 43.6582 25.9628 43.5624 25.7944 43.3931C25.6261 43.2237 25.5315 42.9946 25.5315 42.7558V42.5861H24.1836V42.7558C24.1836 42.9946 24.089 43.2237 23.9207 43.3931C23.7523 43.5624 23.5237 43.6582 23.2849 43.6595H20.4691C20.2295 43.6595 19.9996 43.5643 19.8302 43.3948C19.6607 43.2254 19.5655 42.9955 19.5655 42.7558V41.1632C18.2726 40.2314 17.3083 38.9139 16.811 37.3998C16.3137 35.8857 16.309 34.2529 16.7977 32.736C17.2863 31.2191 18.2431 29.896 19.5306 28.9569C20.8182 28.0177 22.3702 27.5107 23.9639 27.5087H26.0108C26.5872 27.5082 27.1617 27.5735 27.7233 27.7034C28.4023 26.9868 29.3208 26.5444 30.3044 26.4603C30.4834 26.4341 30.6662 26.4608 30.8303 26.537C30.9944 26.6133 31.1326 26.7359 31.228 26.8896C31.3214 27.0394 31.3709 27.2124 31.3709 27.3889C31.3709 27.5654 31.3214 27.7384 31.228 27.8881C30.9568 28.2878 30.8204 28.7635 30.8386 29.2461C31.9084 30.139 32.7101 31.3105 33.1551 32.631H33.4147C33.5864 32.6317 33.7563 32.6664 33.9146 32.7332C34.0728 32.7999 34.2162 32.8974 34.3365 33.02C34.4567 33.1426 34.5515 33.2879 34.6152 33.4473C34.679 33.6068 34.7104 33.7773 34.7078 33.9491V36.0459C34.7078 36.3889 34.5715 36.7177 34.329 36.9602C34.0865 37.2027 33.7577 37.339 33.4147 37.339H33.1901C32.6649 38.9812 31.5893 40.3919 30.1446 41.333V42.7409C30.1466 42.8608 30.1247 42.9799 30.0802 43.0913C30.0357 43.2027 29.9694 43.304 29.8853 43.3895C29.8012 43.475 29.7009 43.543 29.5903 43.5893C29.4797 43.6356 29.3609 43.6595 29.241 43.6595ZM23.9639 41.7024H26.4102V42.7558H29.241V40.8387L29.4507 40.7139C30.9186 39.8361 31.9928 38.4276 32.4512 36.7798L32.541 36.4503H33.4297C33.5383 36.4503 33.6424 36.4072 33.7192 36.3304C33.7959 36.2536 33.8391 36.1495 33.8391 36.0409V33.9491C33.8391 33.84 33.7961 33.7354 33.7195 33.6578C33.6428 33.5802 33.5387 33.536 33.4297 33.5347H32.4961L32.4062 33.2152C32.0233 31.8829 31.2345 30.7032 30.1496 29.8402L30.0198 29.7354L29.9899 29.5706C29.8843 28.8226 30.0624 28.0622 30.4891 27.4388C30.4958 27.4284 30.4993 27.4163 30.4993 27.4039C30.4993 27.3915 30.4958 27.3794 30.4891 27.3689C30.4827 27.3566 30.4723 27.3469 30.4595 27.3414C30.4468 27.336 30.4325 27.3351 30.4192 27.339C29.9969 27.3659 29.5846 27.4791 29.2077 27.6714C28.8307 27.8637 28.4972 28.1312 28.2275 28.4573L28.0478 28.6869L27.7632 28.6121C27.192 28.4566 26.6028 28.3776 26.0108 28.3774H23.9639C22.5371 28.3754 21.1475 28.8319 19.9999 29.6796C18.8523 30.5274 18.0076 31.7216 17.5903 33.0859C17.173 34.4503 17.2052 35.9126 17.6822 37.2573C18.1592 38.602 19.0557 39.7577 20.2395 40.5541L20.4292 40.684V42.7409H23.2649V41.6425H23.7242C23.8024 41.6688 23.8825 41.6888 23.9639 41.7024Z" fill="#E1251B"/>
<path d="M29.9002 33.2402C29.7618 33.2412 29.6262 33.201 29.5106 33.1248C29.395 33.0486 29.3046 32.9398 29.2509 32.8122C29.1973 32.6845 29.1827 32.5439 29.2091 32.4079C29.2355 32.272 29.3017 32.147 29.3992 32.0488C29.4968 31.9505 29.6213 31.8835 29.757 31.8561C29.8928 31.8287 30.0335 31.8423 30.1616 31.895C30.2896 31.9478 30.399 32.0373 30.476 32.1524C30.5531 32.2674 30.5942 32.4028 30.5942 32.5412C30.5942 32.7257 30.5212 32.9028 30.3912 33.0337C30.2612 33.1646 30.0847 33.2389 29.9002 33.2402Z" fill="#E1251B"/>
<path d="M22.7607 29.366C24.8204 29.366 26.4901 27.6963 26.4901 25.6366C26.4901 23.5769 24.8204 21.9072 22.7607 21.9072C20.701 21.9072 19.0312 23.5769 19.0312 25.6366C19.0312 27.6963 20.701 29.366 22.7607 29.366Z" fill="white"/>
<path d="M22.7607 22.7908C23.3235 22.7908 23.8737 22.9577 24.3417 23.2704C24.8096 23.5831 25.1744 24.0275 25.3898 24.5475C25.6052 25.0675 25.6615 25.6397 25.5517 26.1917C25.4419 26.7437 25.1709 27.2508 24.7729 27.6487C24.3749 28.0467 23.8679 28.3178 23.3158 28.4276C22.7638 28.5374 22.1916 28.481 21.6716 28.2656C21.1517 28.0502 20.7072 27.6855 20.3945 27.2175C20.0818 26.7495 19.9149 26.1993 19.9149 25.6365C19.9149 24.8818 20.2147 24.158 20.7484 23.6243C21.2821 23.0906 22.0059 22.7908 22.7607 22.7908ZM22.7607 21.9071C22.0231 21.9071 21.302 22.1258 20.6887 22.5356C20.0754 22.9454 19.5974 23.5279 19.3151 24.2093C19.0329 24.8908 18.959 25.6406 19.1029 26.3641C19.2468 27.0875 19.602 27.752 20.1236 28.2736C20.6451 28.7952 21.3097 29.1504 22.0331 29.2943C22.7565 29.4382 23.5064 29.3643 24.1878 29.082C24.8693 28.7998 25.4518 28.3218 25.8615 27.7085C26.2713 27.0952 26.4901 26.3741 26.4901 25.6365C26.4907 25.1466 26.3947 24.6613 26.2075 24.2086C26.0203 23.7558 25.7457 23.3444 25.3992 22.998C25.0528 22.6515 24.6414 22.3768 24.1886 22.1897C23.7358 22.0025 23.2506 21.9065 22.7607 21.9071Z" fill="#E1251B"/>
<path d="M23.335 26.1108V26.635H22.3964V27.2791H21.6924V26.635H21.4678V26.1108H21.7024V25.8262H21.4678V25.2721H21.7024V23.7993H22.7009C22.9738 23.7883 23.2468 23.8203 23.5097 23.8941C23.6766 23.9598 23.8183 24.077 23.9141 24.2286C24.0163 24.3933 24.0683 24.5841 24.0639 24.7778C24.0672 24.9232 24.047 25.0682 24.004 25.2072C23.9662 25.3161 23.9068 25.4164 23.8292 25.5017C23.7554 25.5782 23.6672 25.6393 23.5696 25.6815C23.4663 25.7288 23.3572 25.7624 23.2451 25.7813C23.1246 25.8026 23.0029 25.8159 22.8807 25.8212H22.3814V26.1058L23.335 26.1108ZM22.3964 25.2721H22.4363C22.6487 25.2833 22.8617 25.2682 23.0704 25.2271C23.1509 25.2045 23.2202 25.153 23.2651 25.0824C23.3156 25.0055 23.3401 24.9145 23.335 24.8227C23.3399 24.7187 23.3081 24.6162 23.2451 24.5332C23.1764 24.4582 23.0819 24.4118 22.9805 24.4034C22.924 24.399 22.8673 24.399 22.8108 24.4034H22.3964V25.2721Z" fill="#E1251B"/>
<path d="M28.4975 23.6845C30.5572 23.6845 32.2269 22.0147 32.2269 19.9551C32.2269 17.8954 30.5572 16.2256 28.4975 16.2256C26.4378 16.2256 24.7681 17.8954 24.7681 19.9551C24.7681 22.0147 26.4378 23.6845 28.4975 23.6845Z" fill="white"/>
<path d="M28.4974 17.1093C29.0603 17.1093 29.6105 17.2762 30.0784 17.5889C30.5464 17.9016 30.9112 18.346 31.1266 18.866C31.3419 19.386 31.3983 19.9582 31.2885 20.5102C31.1787 21.0622 30.9077 21.5693 30.5097 21.9673C30.1117 22.3653 29.6046 22.6363 29.0526 22.7461C28.5006 22.8559 27.9284 22.7996 27.4084 22.5842C26.8884 22.3688 26.444 22.004 26.1313 21.5361C25.8186 21.0681 25.6517 20.5179 25.6517 19.9551C25.6517 19.2003 25.9515 18.4765 26.4852 17.9428C27.0189 17.4091 27.7427 17.1093 28.4974 17.1093ZM28.4974 16.2256C27.7605 16.2257 27.04 16.444 26.4271 16.8531C25.8141 17.2623 25.3361 17.8438 25.0534 18.5244C24.7707 19.205 24.6959 19.9541 24.8386 20.6771C24.9813 21.4002 25.335 22.0647 25.8551 22.5869C26.3752 23.109 27.0383 23.4654 27.7607 23.611C28.4832 23.7565 29.2326 23.6848 29.9143 23.4049C30.596 23.1249 31.1795 22.6492 31.5911 22.0379C32.0026 21.4266 32.2239 20.707 32.2268 19.97C32.2275 19.4801 32.1315 18.9948 31.9443 18.5421C31.7571 18.0893 31.4824 17.6779 31.136 17.3315C30.7896 16.985 30.3782 16.7104 29.9254 16.5232C29.4726 16.336 28.9874 16.24 28.4974 16.2406V16.2256Z" fill="#E1251B"/>
<path d="M29.0765 20.4294V20.9286H28.1329V21.5727H27.429V20.9686H27.1943V20.4693H27.429V20.1847H27.1943V19.5906H27.429V18.0929H28.4275C28.7004 18.0815 28.9734 18.1135 29.2363 18.1877C29.4032 18.2534 29.5449 18.3706 29.6407 18.5222C29.7446 18.6863 29.7984 18.8772 29.7954 19.0714C29.7973 19.2171 29.7754 19.3621 29.7305 19.5008C29.6928 19.6097 29.6333 19.7099 29.5558 19.7953C29.4838 19.8717 29.3972 19.9328 29.3012 19.9751C29.1961 20.0224 29.0853 20.0559 28.9717 20.0749C28.8512 20.0964 28.7295 20.1098 28.6072 20.1148H28.108V20.3994L29.0765 20.4294ZM28.1329 19.5906H28.1729C28.3853 19.6019 28.5982 19.5868 28.8069 19.5457C28.8874 19.5231 28.9568 19.4715 29.0016 19.4009C29.0539 19.3247 29.0801 19.2336 29.0765 19.1413C29.0796 19.0367 29.046 18.9343 28.9817 18.8517C28.9129 18.7767 28.8184 18.7304 28.7171 18.7219H28.5473H28.1329V19.5906Z" fill="#E1251B"/>
<path d="M24.433 14.9925C26.4927 14.9925 28.1624 13.3228 28.1624 11.2631C28.1624 9.2034 26.4927 7.53369 24.433 7.53369C22.3733 7.53369 20.7036 9.2034 20.7036 11.2631C20.7036 13.3228 22.3733 14.9925 24.433 14.9925Z" fill="white"/>
<path d="M24.433 8.41737C24.9959 8.41737 25.546 8.58427 26.014 8.89696C26.482 9.20965 26.8467 9.65409 27.0621 10.1741C27.2775 10.6941 27.3339 11.2663 27.2241 11.8183C27.1143 12.3703 26.8432 12.8774 26.4453 13.2753C26.0473 13.6733 25.5402 13.9443 24.9882 14.0541C24.4362 14.164 23.864 14.1076 23.344 13.8922C22.824 13.6768 22.3796 13.3121 22.0669 12.8441C21.7542 12.3761 21.5873 11.8259 21.5873 11.2631C21.5886 10.5088 21.8889 9.78571 22.4222 9.25232C22.9556 8.71893 23.6787 8.41869 24.433 8.41737ZM24.433 7.53369C23.6954 7.53369 22.9744 7.75242 22.3611 8.16221C21.7478 8.572 21.2698 9.15446 20.9875 9.83592C20.7052 10.5174 20.6314 11.2672 20.7753 11.9907C20.9192 12.7141 21.2744 13.3786 21.7959 13.9002C22.3175 14.4218 22.982 14.7769 23.7055 14.9208C24.4289 15.0647 25.1787 14.9909 25.8602 14.7086C26.5417 14.4264 27.1241 13.9483 27.5339 13.335C27.9437 12.7217 28.1624 12.0007 28.1624 11.2631C28.1611 10.2744 27.7678 9.32658 27.0687 8.62747C26.3695 7.92835 25.4217 7.53501 24.433 7.53369Z" fill="#E1251B"/>
<path d="M25.0076 11.7424V12.2666H24.064V12.9106H23.365V12.2666H23.1304V11.7424H23.365V11.4828H23.1304V10.8986H23.365V9.43085H24.3635C24.6365 9.41658 24.91 9.44866 25.1723 9.52571C25.342 9.58623 25.4863 9.70235 25.5817 9.85521C25.6838 10.0199 25.7359 10.2107 25.7315 10.4044C25.7362 10.5503 25.7142 10.6958 25.6666 10.8337C25.6336 10.9438 25.5755 11.0446 25.4968 11.1283C25.4237 11.2068 25.3353 11.2696 25.2372 11.313C25.1334 11.358 25.0244 11.3899 24.9127 11.4079C24.7926 11.4316 24.6706 11.445 24.5482 11.4478H24.1588H24.064V11.7324L25.0076 11.7424ZM24.064 10.8986H24.1089C24.3194 10.9106 24.5306 10.8972 24.738 10.8587C24.8195 10.8327 24.8899 10.78 24.9377 10.7089C24.9858 10.6311 25.0101 10.5408 25.0076 10.4493C25.013 10.3467 24.9811 10.2456 24.9177 10.1648C24.884 10.1255 24.8428 10.0934 24.7965 10.0702C24.7502 10.0471 24.6997 10.0334 24.6481 10.03H24.4783H24.064V10.8986Z" fill="#E1251B"/>
</svg>
