<svg width="50" height="50" viewBox="0 0 50 50" fill="none" xmlns="http://www.w3.org/2000/svg">
<path d="M25 50C38.8071 50 50 38.8071 50 25C50 11.1929 38.8071 0 25 0C11.1929 0 0 11.1929 0 25C0 38.8071 11.1929 50 25 50Z" fill="#E1251B"/>
<path d="M32.1883 23.3926C30.8505 23.3926 29.5338 23.0582 28.3581 22.4199C27.1824 21.7815 26.1849 20.8594 25.4562 19.7374C24.7276 18.6154 24.2909 17.3291 24.1859 15.9954C24.0809 14.6617 24.3109 13.3228 24.855 12.1006L25.6588 12.48C25.0311 13.8869 24.8751 15.459 25.214 16.9618C25.5529 18.4646 26.3685 19.8175 27.5391 20.8189C28.7098 21.8203 30.1728 22.4164 31.71 22.5183C33.2471 22.6202 34.776 22.2225 36.0687 21.3845C37.3613 20.5464 38.3484 19.313 38.8827 17.8681C39.417 16.4232 39.47 14.8443 39.0336 13.3669C38.5972 11.8894 37.6949 10.5927 36.4613 9.66996C35.2277 8.74725 33.7288 8.24805 32.1883 8.24682V7.34326C34.2819 7.39548 36.2722 8.26386 37.7345 9.76308C39.1968 11.2623 40.0153 13.2737 40.0153 15.3679C40.0153 17.4622 39.1968 19.4735 37.7345 20.9728C36.2722 22.472 34.2819 23.3404 32.1883 23.3926Z" fill="white"/>
<path d="M26.5325 13.6881L26.6623 10.1737L23.5522 11.8211L26.5325 13.6881Z" fill="white"/>
<path d="M35.8725 19.6785L31.7441 15.5501V10.633H32.6277V15.1857L36.4965 19.0545L35.8725 19.6785Z" fill="white"/>
<path d="M17.8365 43.72C16.8333 43.7187 15.8716 43.3196 15.1623 42.6103C14.4529 41.9009 14.0539 40.9393 14.0525 39.9361V27.0717C13.3165 26.4438 12.7491 25.642 12.4018 24.7391C12.0544 23.8362 11.9382 22.8609 12.0637 21.9016C12.1892 20.9424 12.5524 20.0297 13.1203 19.2465C13.6882 18.4634 14.4428 17.8345 15.3155 17.4171L16.3139 16.9479V22.464H19.404V16.9728L20.4024 17.4421C21.2738 17.8609 22.0269 18.4905 22.5935 19.274C23.1602 20.0574 23.5223 20.9698 23.6473 21.9285C23.7722 22.8872 23.6559 23.862 23.309 24.7644C22.962 25.6669 22.3954 26.4685 21.6604 27.0966V39.9361C21.6597 40.4362 21.5601 40.9312 21.3672 41.3926C21.1743 41.854 20.892 42.2727 20.5365 42.6245C20.181 42.9762 19.7594 43.2542 19.296 43.4422C18.8326 43.6302 18.3366 43.7247 17.8365 43.72ZM15.4104 18.3656C14.7059 18.7618 14.1099 19.3253 13.6749 20.0065C13.2399 20.6876 12.9793 21.4654 12.9162 22.2711C12.853 23.0768 12.9892 23.8857 13.3128 24.6263C13.6363 25.3669 14.1373 26.0165 14.7714 26.5176L14.9361 26.6523V39.9361C14.9672 40.6852 15.2866 41.3932 15.8276 41.9122C16.3686 42.4312 17.0893 42.721 17.839 42.721C18.5887 42.721 19.3094 42.4312 19.8504 41.9122C20.3913 41.3932 20.7108 40.6852 20.7418 39.9361V26.6523L20.9066 26.5176C21.5404 26.0161 22.0411 25.3662 22.3642 24.6254C22.6874 23.8845 22.8231 23.0755 22.7595 22.2698C22.6958 21.464 22.4348 20.6864 21.9993 20.0054C21.5638 19.3245 20.9674 18.7613 20.2626 18.3656V23.3576H15.4104V18.3656Z" fill="white"/>
<path d="M26.9568 39.8362H20.8965V40.7198H26.9568V39.8362Z" fill="white"/>
<path d="M22.2693 32.0836L21.2709 33.0821C21.0603 33.2924 20.7748 33.4105 20.4771 33.4105C20.1795 33.4105 19.894 33.2924 19.6834 33.0821C19.4728 32.8706 19.3545 32.5843 19.3545 32.2858C19.3545 31.9874 19.4728 31.7011 19.6834 31.4896L21.6802 29.4928C21.8917 29.2822 22.178 29.1639 22.4764 29.1639C22.7749 29.1639 23.0612 29.2822 23.2727 29.4928L27.1165 33.4215" fill="#E1251B"/>
<path d="M20.4675 33.8408C20.1582 33.8394 19.8561 33.7468 19.5992 33.5745C19.3422 33.4022 19.1418 33.158 19.023 32.8724C18.9042 32.5868 18.8722 32.2725 18.9311 31.9688C18.9901 31.6651 19.1373 31.3856 19.3543 31.1651L21.3511 29.1683C21.6457 28.8757 22.0441 28.7114 22.4594 28.7114C22.8746 28.7114 23.273 28.8757 23.5676 29.1683L27.4564 33.092L26.8224 33.7111L22.9635 29.7823C22.9 29.7186 22.8245 29.6681 22.7415 29.6336C22.6584 29.5991 22.5693 29.5814 22.4793 29.5814C22.3894 29.5814 22.3003 29.5991 22.2172 29.6336C22.1341 29.6681 22.0586 29.7186 21.9951 29.7823L19.9983 31.7791C19.9325 31.8442 19.8809 31.9221 19.8465 32.008C19.8122 32.0939 19.7959 32.1859 19.7986 32.2783C19.7968 32.415 19.8356 32.5492 19.9103 32.6637C19.9849 32.7782 20.0919 32.868 20.2177 32.9215C20.3435 32.975 20.4824 32.9899 20.6166 32.9643C20.7509 32.9386 20.8745 32.8736 20.9717 32.7775L21.9701 31.7791L22.5941 32.4031L21.5957 33.4015C21.4462 33.5459 21.2694 33.6591 21.0758 33.7345C20.8821 33.8099 20.6753 33.8461 20.4675 33.8408Z" fill="white"/>
<path d="M16.7082 30.5611H13.8777C13.2546 30.5611 12.7495 31.0662 12.7495 31.6893C12.7495 32.3124 13.2546 32.8175 13.8777 32.8175H16.7082C17.3313 32.8175 17.8364 32.3124 17.8364 31.6893C17.8364 31.0662 17.3313 30.5611 16.7082 30.5611Z" fill="#E1251B"/>
<path d="M16.713 33.2568H13.8726C13.4715 33.2342 13.0943 33.0589 12.8184 32.767C12.5424 32.475 12.3887 32.0885 12.3887 31.6868C12.3887 31.2851 12.5424 30.8986 12.8184 30.6067C13.0943 30.3147 13.4715 30.1394 13.8726 30.1168H16.713C17.1141 30.1394 17.4913 30.3147 17.7673 30.6067C18.0432 30.8986 18.197 31.2851 18.197 31.6868C18.197 32.0885 18.0432 32.475 17.7673 32.767C17.4913 33.0589 17.1141 33.2342 16.713 33.2568ZM13.8726 31.0004C13.7007 31.0151 13.5405 31.0938 13.4238 31.2209C13.307 31.348 13.2423 31.5142 13.2423 31.6868C13.2423 31.8594 13.307 32.0257 13.4238 32.1528C13.5405 32.2799 13.7007 32.3585 13.8726 32.3732H16.713C16.885 32.3585 17.0452 32.2799 17.1619 32.1528C17.2786 32.0257 17.3434 31.8594 17.3434 31.6868C17.3434 31.5142 17.2786 31.348 17.1619 31.2209C17.0452 31.0938 16.885 31.0151 16.713 31.0004H13.8726Z" fill="white"/>
<path d="M16.7082 33.2019H13.8777C13.2546 33.2019 12.7495 33.707 12.7495 34.3301C12.7495 34.9532 13.2546 35.4583 13.8777 35.4583H16.7082C17.3313 35.4583 17.8364 34.9532 17.8364 34.3301C17.8364 33.707 17.3313 33.2019 16.7082 33.2019Z" fill="#E1251B"/>
<path d="M16.713 35.8975H13.8726C13.4715 35.8749 13.0943 35.6996 12.8184 35.4077C12.5424 35.1158 12.3887 34.7293 12.3887 34.3276C12.3887 33.9258 12.5424 33.5394 12.8184 33.2474C13.0943 32.9555 13.4715 32.7802 13.8726 32.7576H16.713C17.1141 32.7802 17.4913 32.9555 17.7673 33.2474C18.0432 33.5394 18.197 33.9258 18.197 34.3276C18.197 34.7293 18.0432 35.1158 17.7673 35.4077C17.4913 35.6996 17.1141 35.8749 16.713 35.8975ZM13.8726 33.6412C13.7007 33.6558 13.5405 33.7345 13.4238 33.8616C13.307 33.9887 13.2423 34.155 13.2423 34.3276C13.2423 34.5001 13.307 34.6664 13.4238 34.7935C13.5405 34.9206 13.7007 34.9993 13.8726 35.014H16.713C16.885 34.9993 17.0452 34.9206 17.1619 34.7935C17.2786 34.6664 17.3434 34.5001 17.3434 34.3276C17.3434 34.155 17.2786 33.9887 17.1619 33.8616C17.0452 33.7345 16.885 33.6558 16.713 33.6412H13.8726Z" fill="white"/>
<path d="M16.7082 35.8427H13.8777C13.2546 35.8427 12.7495 36.3478 12.7495 36.9708C12.7495 37.5939 13.2546 38.099 13.8777 38.099H16.7082C17.3313 38.099 17.8364 37.5939 17.8364 36.9708C17.8364 36.3478 17.3313 35.8427 16.7082 35.8427Z" fill="#E1251B"/>
<path d="M16.713 38.5383H13.8726C13.4715 38.5157 13.0943 38.3405 12.8184 38.0485C12.5424 37.7566 12.3887 37.3701 12.3887 36.9684C12.3887 36.5666 12.5424 36.1802 12.8184 35.8882C13.0943 35.5963 13.4715 35.421 13.8726 35.3984H16.713C17.1141 35.421 17.4913 35.5963 17.7673 35.8882C18.0432 36.1802 18.197 36.5666 18.197 36.9684C18.197 37.3701 18.0432 37.7566 17.7673 38.0485C17.4913 38.3405 17.1141 38.5157 16.713 38.5383ZM13.8726 36.282C13.7007 36.2966 13.5405 36.3753 13.4238 36.5024C13.307 36.6295 13.2423 36.7958 13.2423 36.9684C13.2423 37.1409 13.307 37.3072 13.4238 37.4343C13.5405 37.5614 13.7007 37.6401 13.8726 37.6548H16.713C16.885 37.6401 17.0452 37.5614 17.1619 37.4343C17.2786 37.3072 17.3434 37.1409 17.3434 36.9684C17.3434 36.7958 17.2786 36.6295 17.1619 36.5024C17.0452 36.3753 16.885 36.2966 16.713 36.282H13.8726Z" fill="white"/>
<path d="M16.7082 38.4834H13.8777C13.2546 38.4834 12.7495 38.9885 12.7495 39.6116C12.7495 40.2347 13.2546 40.7398 13.8777 40.7398H16.7082C17.3313 40.7398 17.8364 40.2347 17.8364 39.6116C17.8364 38.9885 17.3313 38.4834 16.7082 38.4834Z" fill="#E1251B"/>
<path d="M16.7131 41.1791H13.8727C13.4569 41.1791 13.0582 41.014 12.7643 40.72C12.4703 40.426 12.3052 40.0273 12.3052 39.6116C12.3052 39.1959 12.4703 38.7972 12.7643 38.5032C13.0582 38.2093 13.4569 38.0441 13.8727 38.0441H16.7131C17.1288 38.0441 17.5275 38.2093 17.8215 38.5032C18.1155 38.7972 18.2806 39.1959 18.2806 39.6116C18.2806 40.0273 18.1155 40.426 17.8215 40.72C17.5275 41.014 17.1288 41.1791 16.7131 41.1791ZM13.8727 38.9377C13.7007 38.9524 13.5406 39.031 13.4238 39.1582C13.3071 39.2853 13.2424 39.4515 13.2424 39.6241C13.2424 39.7967 13.3071 39.9629 13.4238 40.09C13.5406 40.2172 13.7007 40.2958 13.8727 40.3105H16.7131C16.8851 40.2958 17.0452 40.2172 17.1619 40.09C17.2787 39.9629 17.3434 39.7967 17.3434 39.6241C17.3434 39.4515 17.2787 39.2853 17.1619 39.1582C17.0452 39.031 16.8851 38.9524 16.7131 38.9377H13.8727Z" fill="white"/>
<path d="M31.5047 42.557H28.2599C27.8446 42.5556 27.4466 42.3901 27.1529 42.0964C26.8593 41.8027 26.6937 41.4048 26.6924 40.9895V32.2135C26.6937 31.7986 26.8594 31.4012 27.1533 31.1083C27.4471 30.8155 27.845 30.651 28.2599 30.651H31.5047C31.7099 30.651 31.9131 30.6914 32.1026 30.7699C32.2922 30.8485 32.4644 30.9636 32.6095 31.1086C32.7546 31.2537 32.8697 31.426 32.9482 31.6156C33.0268 31.8051 33.0672 32.0083 33.0672 32.2135V40.9895C33.0672 41.4043 32.9027 41.8023 32.6098 42.0961C32.317 42.3899 31.9195 42.5556 31.5047 42.557ZM28.2599 31.5296C28.1701 31.5296 28.0811 31.5473 27.9982 31.5817C27.9152 31.616 27.8398 31.6664 27.7763 31.7299C27.7128 31.7934 27.6624 31.8688 27.628 31.9518C27.5937 32.0348 27.576 32.1237 27.576 32.2135V40.9895C27.576 41.1708 27.648 41.3448 27.7763 41.4731C27.9045 41.6013 28.0785 41.6734 28.2599 41.6734H31.5047C31.6857 41.6721 31.8589 41.5996 31.9868 41.4716C32.1148 41.3436 32.1873 41.1704 32.1886 40.9895V32.2135C32.1873 32.0325 32.1148 31.8593 31.9868 31.7313C31.8589 31.6034 31.6857 31.5309 31.5047 31.5296H28.2599Z" fill="white"/>
</svg>
