<svg width="50" height="50" viewBox="0 0 50 50" fill="none" xmlns="http://www.w3.org/2000/svg">
<path d="M25 50C38.8071 50 50 38.8071 50 25C50 11.1929 38.8071 0 25 0C11.1929 0 0 11.1929 0 25C0 38.8071 11.1929 50 25 50Z" fill="#E1251B"/>
<path d="M25 47.9155C37.6558 47.9155 47.9154 37.6559 47.9154 25C47.9154 12.3441 37.6558 2.08453 25 2.08453C12.3441 2.08453 2.08447 12.3441 2.08447 25C2.08447 37.6559 12.3441 47.9155 25 47.9155Z" fill="white"/>
<path d="M4.78284 27.9364L5.07315 29.3118L7.40991 28.8359L7.61455 29.6973L4.5068 30.3445L4.03564 28.0792L4.78284 27.9364Z" fill="#E1251B"/>
<path d="M7.096 26.2041C7.11808 26.4842 7.03869 26.7629 6.87231 26.9893C6.78764 27.0947 6.6804 27.1798 6.55851 27.2383C6.43661 27.2967 6.30315 27.3271 6.16795 27.3272C6.02417 27.343 5.87871 27.3225 5.74487 27.2677C5.61103 27.2128 5.49306 27.1253 5.40173 27.0131C5.20771 26.7482 5.10424 26.4277 5.10666 26.0994C5.09695 25.837 5.13072 25.5749 5.2066 25.3236H5.15425C4.76875 25.3236 4.5879 25.5758 4.60694 26.0232C4.62183 26.322 4.69118 26.6155 4.81159 26.8894L4.14054 27.1273C3.95559 26.7484 3.85185 26.3351 3.83595 25.9137C3.81176 25.7221 3.8267 25.5276 3.87987 25.3419C3.93304 25.1562 4.02334 24.9832 4.1453 24.8334C4.27674 24.7074 4.43197 24.6088 4.60194 24.5434C4.7719 24.478 4.95319 24.4472 5.13521 24.4527L6.96274 24.3765L7.00081 25.2379H6.65815C6.79924 25.3556 6.91191 25.5035 6.98773 25.6708C7.06355 25.8382 7.10056 26.0204 7.096 26.2041ZM6.46778 25.9613C6.46561 25.7872 6.40342 25.6191 6.29169 25.4854C6.24399 25.4247 6.18224 25.3765 6.11176 25.345C6.04128 25.3135 5.9642 25.2996 5.88716 25.3046H5.73011C5.65591 25.487 5.62339 25.6838 5.63493 25.8804C5.63267 26.0397 5.67917 26.1958 5.76818 26.3278C5.80747 26.3792 5.85892 26.42 5.9179 26.4466C5.97688 26.4732 6.04155 26.4847 6.10608 26.4801C6.16051 26.4792 6.21393 26.4653 6.26193 26.4397C6.30993 26.414 6.35113 26.3773 6.38212 26.3326C6.45232 26.2223 6.48256 26.0912 6.46778 25.9613Z" fill="#E1251B"/>
<path d="M7.90957 23.8626L3.86426 23.2201L4.00703 22.3349L4.4544 22.4063C4.31332 22.2737 4.20731 22.1083 4.14585 21.9247C4.08439 21.7412 4.0694 21.5453 4.10222 21.3545C4.13031 21.1666 4.19784 20.9868 4.30037 20.8268C4.4029 20.6669 4.53811 20.5304 4.69712 20.4264C5.06719 20.1865 5.51713 20.1027 5.94878 20.1932C6.38389 20.2398 6.78272 20.4572 7.05767 20.7977C7.18014 20.9493 7.26825 21.1257 7.3159 21.3147C7.36356 21.5036 7.36963 21.7007 7.3337 21.8923C7.30555 22.0793 7.23522 22.2575 7.12803 22.4133C7.02084 22.5692 6.8796 22.6986 6.71501 22.7918L8.05234 23.0012L7.90957 23.8626ZM6.22005 22.4777C6.30406 22.4217 6.37561 22.349 6.43022 22.2642C6.48483 22.1793 6.52132 22.084 6.5374 21.9844C6.55349 21.8848 6.54882 21.7829 6.52369 21.6851C6.49857 21.5874 6.45352 21.4959 6.39139 21.4164C6.24154 21.2366 6.02877 21.1209 5.79649 21.0927C5.57132 21.0498 5.33828 21.0941 5.14448 21.2165C5.05631 21.2716 4.98124 21.3453 4.92452 21.4324C4.86779 21.5195 4.83079 21.618 4.81609 21.7209C4.79915 21.8222 4.80396 21.926 4.83022 22.0253C4.85648 22.1246 4.90358 22.2171 4.96839 22.2968C5.12226 22.4732 5.33575 22.5867 5.56805 22.6157C5.79502 22.6539 6.02803 22.6045 6.22005 22.4777Z" fill="#E1251B"/>
<path d="M8.03836 19.1367C7.94841 19.4024 7.76601 19.6271 7.52437 19.7697C7.4061 19.836 7.27404 19.874 7.1386 19.8806C7.00315 19.8872 6.86803 19.8622 6.74386 19.8077C6.60558 19.766 6.47977 19.6907 6.37763 19.5886C6.27549 19.4864 6.20021 19.3606 6.15848 19.2223C6.0865 18.9039 6.11647 18.571 6.24415 18.2705C6.34733 18.0289 6.48874 17.8056 6.66296 17.609H6.61061C6.25367 17.471 5.99191 17.609 5.83486 18.0373C5.73616 18.3187 5.68627 18.6148 5.68732 18.913L4.97345 18.8844C4.93528 18.4522 4.99213 18.0169 5.14002 17.609C5.19208 17.423 5.28135 17.2494 5.40241 17.0989C5.52348 16.9484 5.67384 16.824 5.84438 16.7333C6.01442 16.6672 6.19606 16.6361 6.37842 16.6418C6.56078 16.6475 6.74011 16.69 6.90568 16.7666L8.61898 17.4091L8.31439 18.2182L7.99553 18.0849C8.08085 18.2459 8.12898 18.4239 8.1364 18.6059C8.14381 18.788 8.11031 18.9693 8.03836 19.1367ZM7.56244 18.6608C7.63636 18.4943 7.64818 18.3069 7.59576 18.1325C7.57515 18.0578 7.53664 17.9893 7.48356 17.9329C7.43048 17.8765 7.36444 17.834 7.29117 17.8089L7.13888 17.7613C7.00119 17.8946 6.89544 18.0573 6.82953 18.2372C6.76008 18.3856 6.74007 18.5525 6.77242 18.7131C6.78984 18.7753 6.82244 18.8323 6.8673 18.8788C6.91215 18.9253 6.96786 18.96 7.02941 18.9796C7.07923 19.0012 7.13368 19.0099 7.18774 19.0049C7.2418 18.9999 7.29373 18.9814 7.33876 18.9511C7.4398 18.8822 7.51513 18.7818 7.55292 18.6655L7.56244 18.6608Z" fill="#E1251B"/>
<path d="M7.74791 12.6785L10.4321 14.3347L9.95618 15.0961L8.92819 14.4632L8.35233 15.415L9.38031 16.048L8.9044 16.8094L6.22021 15.1532L6.69613 14.3918L7.72888 15.0295L8.30474 14.0777L7.27199 13.4399L7.74791 12.6785Z" fill="#E1251B"/>
<path d="M10.1609 9.86578L10.732 10.375L10.1038 11.0746L11.898 12.6689L11.2841 13.3257L9.51841 11.7504L8.89496 12.4453L8.32861 11.936L10.1609 9.86578Z" fill="#E1251B"/>
<path d="M13.1592 7.41003L15.1009 9.89909L14.4203 10.4321L13.2877 8.98057L13.4495 11.1888L12.7832 11.7028L10.8462 9.21853L11.5268 8.6855L12.6594 10.137L12.4976 7.92879L13.1592 7.41003Z" fill="#E1251B"/>
<path d="M16.7762 5.45877L18.2039 8.28097L17.4044 8.68074L16.9523 7.77649L16.5192 7.99066L16.3764 9.19473L15.4531 9.67065L15.653 8.27145C15.4482 8.30244 15.2389 8.26577 15.0568 8.16699C14.8747 8.06822 14.7298 7.91273 14.6441 7.72414C14.5727 7.59744 14.5313 7.45606 14.523 7.31086C14.5148 7.16566 14.5399 7.0205 14.5965 6.88653C14.7388 6.5774 14.987 6.32929 15.2961 6.18693L16.7762 5.45877ZM16.1051 7.46715L16.6572 7.19587L16.3003 6.48675L15.753 6.76279C15.6279 6.81427 15.5239 6.90651 15.4579 7.02454C15.4312 7.07516 15.4173 7.13152 15.4173 7.18873C15.4173 7.24595 15.4312 7.30231 15.4579 7.35293C15.4818 7.40381 15.5176 7.44815 15.5624 7.48214C15.6071 7.51612 15.6595 7.53874 15.7149 7.54805C15.8504 7.56637 15.9881 7.53782 16.1051 7.46715Z" fill="#E1251B"/>
<path d="M22.6492 3.93109L23.206 7.03408L22.3256 7.19113L22.1162 6.0061L21.0311 6.18695L21.2453 7.37198L20.3648 7.53379L19.8032 4.44032L20.6837 4.28327L20.9026 5.47783L21.9829 5.2827L21.7688 4.08814L22.6492 3.93109Z" fill="#E1251B"/>
<path d="M24.7909 7.05787C24.5097 7.063 24.236 6.9667 24.0199 6.7866C23.9195 6.69596 23.8409 6.58385 23.7898 6.45861C23.7387 6.33336 23.7165 6.19821 23.7249 6.0632C23.7177 5.91882 23.7465 5.77491 23.8089 5.64447C23.8712 5.51403 23.965 5.40115 24.0818 5.31601C24.3576 5.13923 24.683 5.05581 25.0099 5.07805C25.273 5.08215 25.5336 5.13041 25.7808 5.22083V5.16847C25.7808 4.78298 25.5667 4.58785 25.1146 4.57834C24.8157 4.57849 24.5192 4.63166 24.2389 4.73539L24.0295 4.05007C24.4169 3.88285 24.8354 3.80011 25.2573 3.80735C25.4494 3.79483 25.6419 3.82125 25.8235 3.88505C26.0051 3.94884 26.1719 4.04868 26.3139 4.17856C26.436 4.31672 26.5289 4.47819 26.587 4.65322C26.6451 4.82826 26.6671 5.01325 26.6518 5.19703L26.6185 7.02932H25.757V6.66286C25.6347 6.79537 25.4848 6.89942 25.3179 6.96767C25.1509 7.03592 24.9711 7.06671 24.7909 7.05787ZM25.0717 6.44394C25.2534 6.45488 25.4333 6.40277 25.581 6.2964C25.6438 6.25168 25.6948 6.19236 25.7296 6.12355C25.7644 6.05474 25.782 5.9785 25.7808 5.90139V5.74434C25.6062 5.66313 25.4166 5.61935 25.224 5.61584C25.0592 5.59445 24.892 5.6279 24.7481 5.71102C24.6942 5.74654 24.6504 5.79551 24.6212 5.8531C24.592 5.91069 24.5783 5.97491 24.5815 6.0394C24.5779 6.09321 24.5877 6.14708 24.6101 6.19612C24.6326 6.24515 24.6669 6.28781 24.71 6.3202C24.8122 6.40283 24.9403 6.44666 25.0717 6.44394Z" fill="#E1251B"/>
<path d="M28.855 7.36248L29.764 4.34039L30.6206 4.60215L30.2447 5.83954L31.701 4.92577L32.6861 5.22084L31.206 6.12985L31.9199 8.28576L30.9062 7.98117L30.4303 6.58673L29.9163 6.89608L29.7116 7.61471L28.855 7.36248Z" fill="#E1251B"/>
<path d="M32.9001 8.88539C32.6481 8.76331 32.4474 8.55593 32.3337 8.30001C32.2842 8.17374 32.2641 8.03785 32.2748 7.90263C32.2855 7.76742 32.3268 7.63641 32.3956 7.51951C32.4536 7.38722 32.5435 7.27142 32.6573 7.18253C32.7711 7.09364 32.9052 7.03444 33.0476 7.01027C33.3786 6.97493 33.7122 7.04666 33.9995 7.21492C34.2327 7.33722 34.4435 7.49814 34.6229 7.69084V7.64325C34.8038 7.30058 34.6943 7.02455 34.2945 6.81991C34.0283 6.68367 33.7398 6.59661 33.4426 6.56291L33.5616 5.85855C33.981 5.88729 34.3897 6.00405 34.7609 6.20121C34.9386 6.2757 35.0993 6.38535 35.2334 6.52358C35.3675 6.6618 35.4723 6.82574 35.5414 7.00552C35.5857 7.18279 35.5942 7.3671 35.5664 7.54769C35.5386 7.72827 35.4751 7.90152 35.3796 8.0573L34.5325 9.67542L33.7901 9.27565L33.9471 8.97582C33.7768 9.0395 33.5945 9.06443 33.4134 9.04879C33.2323 9.03315 33.0569 8.97733 32.9001 8.88539ZM33.4284 8.46659C33.585 8.55754 33.7684 8.59119 33.9471 8.56177C34.0234 8.55032 34.0957 8.52051 34.1579 8.47491C34.22 8.42932 34.2702 8.36929 34.304 8.30001L34.3802 8.15724C34.2583 8.00327 34.1039 7.87813 33.9281 7.79078C33.7852 7.70433 33.6184 7.66596 33.4522 7.68132C33.3878 7.68962 33.3266 7.71404 33.2741 7.75231C33.2217 7.79058 33.1798 7.84146 33.1523 7.90024C33.1277 7.94808 33.1148 8.00111 33.1148 8.05492C33.1148 8.10872 33.1277 8.16175 33.1523 8.20959C33.212 8.32451 33.3095 8.4153 33.4284 8.46659Z" fill="#E1251B"/>
<path d="M34.5186 10.7605L37.1218 7.58139L37.8119 8.14297L37.5264 8.49515C37.7123 8.43911 37.9093 8.43022 38.0996 8.46926C38.2898 8.50831 38.4674 8.59408 38.6162 8.71884C38.7645 8.83762 38.886 8.98632 38.973 9.15525C39.0599 9.32418 39.1102 9.50954 39.1207 9.69923C39.132 9.91751 39.0999 10.1359 39.0264 10.3417C38.9529 10.5475 38.8394 10.7368 38.6924 10.8985C38.5625 11.0755 38.3989 11.225 38.2111 11.3385C38.0232 11.4521 37.8148 11.5274 37.5977 11.5601C37.4097 11.5863 37.2183 11.5732 37.0356 11.5216C36.8529 11.47 36.6829 11.381 36.5364 11.2602C36.3872 11.1433 36.2667 10.9936 36.1842 10.8229C36.1017 10.6521 36.0594 10.4647 36.0605 10.2751L35.2182 11.3221L34.5186 10.7605ZM36.565 9.9943C36.5671 10.0973 36.5921 10.1986 36.6382 10.2908C36.6843 10.383 36.7503 10.4638 36.8315 10.5273C36.9109 10.5945 37.004 10.6433 37.1044 10.6705C37.2047 10.6976 37.3098 10.7024 37.4121 10.6844C37.6407 10.6413 37.8455 10.516 37.988 10.3322C38.1399 10.1592 38.2184 9.93389 38.2069 9.70399C38.2049 9.60025 38.1799 9.49825 38.1338 9.40528C38.0877 9.31232 38.0217 9.23068 37.9404 9.1662C37.86 9.101 37.7666 9.0537 37.6665 9.02744C37.5664 9.00118 37.4618 8.99656 37.3598 9.0139C37.1309 9.05583 36.9267 9.18349 36.7887 9.37084C36.6349 9.54109 36.5545 9.76513 36.565 9.9943Z" fill="#E1251B"/>
<path d="M42.0331 12.3739L41.4477 12.8498L40.8433 12.1359L39.0253 13.7112L38.4399 13.0211L40.2627 11.4744L39.6583 10.7605L40.2389 10.2846L42.0331 12.3739Z" fill="#E1251B"/>
<path d="M39.0254 15.1913L42.5853 13.1639L43.0279 13.9397L42.6329 14.1633C42.8294 14.174 43.02 14.2347 43.1866 14.3396C43.3532 14.4446 43.4902 14.5903 43.5847 14.763C43.6804 14.9277 43.7404 15.1107 43.7609 15.3001C43.7814 15.4894 43.7619 15.681 43.7037 15.8624C43.5602 16.2758 43.2615 16.6171 42.8708 16.8142C42.5012 17.0511 42.0528 17.1315 41.6239 17.0379C41.4391 16.9953 41.2652 16.9144 41.1135 16.8005C40.9619 16.6866 40.8358 16.5421 40.7435 16.3764C40.6471 16.2131 40.5897 16.0299 40.5756 15.8409C40.5616 15.6519 40.5913 15.4622 40.6626 15.2865L39.5013 15.9671L39.0254 15.1913ZM41.2099 15.1913C41.1759 15.2893 41.1633 15.3935 41.1728 15.4968C41.1824 15.6001 41.2139 15.7001 41.2653 15.7903C41.3167 15.8804 41.3867 15.9585 41.4707 16.0194C41.5547 16.0802 41.6508 16.1224 41.7524 16.1432C41.9794 16.1818 42.2128 16.1409 42.4132 16.0273C42.6135 15.9137 42.7684 15.7344 42.8518 15.5197C42.8883 15.4267 42.9055 15.3273 42.9022 15.2274C42.899 15.1276 42.8753 15.0295 42.8327 14.9391C42.7827 14.8501 42.7145 14.7728 42.6325 14.7121C42.5504 14.6514 42.4565 14.6087 42.3568 14.5869C42.1227 14.5449 41.8813 14.5861 41.6744 14.7035C41.4675 14.8208 41.3082 15.0069 41.2241 15.2294L41.2099 15.1913Z" fill="#E1251B"/>
<path d="M45.593 19.941L42.5899 20.8928L42.3234 20.0695L44.0748 19.5126L41.9474 18.9035L41.6904 18.0849L44.6935 17.1331L44.96 17.9564L43.2039 18.518L45.336 19.1272L45.593 19.941Z" fill="#E1251B"/>
<path d="M42.9944 24.0624L42.7898 22.0969H42.0473L41.9712 21.3497L43.4656 21.1926L43.5037 21.5305C44.2023 21.7068 44.93 21.7359 45.6405 21.6162H45.9118L46.164 24.1624L43.7844 24.4098L43.832 24.8382L42.3234 24.8858L42.2425 24.1386L42.9944 24.0624ZM43.5988 22.4491L43.7083 23.5199L45.3264 23.3533L45.236 22.5157H45.1646C44.6431 22.5909 44.1121 22.5684 43.5988 22.4491Z" fill="#E1251B"/>
<path d="M42.742 28.0792L42.8705 27.1892L43.6795 27.3035L44.1554 26.9989L43.0227 26.047L43.1703 25.0571L44.8265 26.4849L46.2876 25.533L46.1638 26.5277L44.6789 27.432L46.0068 27.6223L45.8783 28.5123L44.5504 28.3219L45.6879 29.6069L45.5404 30.6349L44.4124 29.2976L42.4136 30.2066L42.5563 29.2262L43.9175 28.6122L43.5367 28.1792L42.742 28.0792Z" fill="#E1251B"/>
<path d="M25 39.1538C22.5109 39.1538 17.7993 38.716 17.7993 37.0645V34.3613H18.6369V37.0645C18.6607 37.4405 20.85 38.3115 25 38.3115C29.15 38.3115 31.3392 37.4405 31.363 37.0645V34.3613H32.2006V37.0645C32.2006 38.716 27.489 39.1538 25 39.1538Z" fill="#E1251B"/>
<path d="M25.0001 22.7251C21.1262 22.7251 15.3628 22.0112 15.3628 20.0409C15.3628 18.0706 21.1262 17.352 25.0001 17.352C28.8741 17.352 34.6375 18.0849 34.6375 20.0409C34.6375 21.997 28.8741 22.7251 25.0001 22.7251ZM25.0001 18.1896C19.2891 18.1896 16.2052 19.4127 16.2052 20.0409C16.2052 20.6691 19.3082 21.8923 25.0001 21.8923C30.6921 21.8923 33.7904 20.6644 33.7904 20.0409C33.7904 19.4175 30.6921 18.1896 25.0001 18.1896Z" fill="#E1251B"/>
<path d="M34.2137 20.041C34.2137 21.2926 30.0875 22.3063 24.9999 22.3063C19.9123 22.3063 15.7861 21.2926 15.7861 20.041V35.0038C15.7861 36.2555 19.9076 37.2692 24.9999 37.2692C30.0922 37.2692 34.2137 36.2555 34.2137 35.0038V20.041Z" fill="#E1251B"/>
<path d="M25.0001 37.688C21.1262 37.688 15.3628 36.9741 15.3628 35.0038V20.041H16.2052C16.2052 20.6644 19.3082 21.8875 25.0001 21.8875C30.6921 21.8875 33.7904 20.6644 33.7904 20.041H34.6327V35.0038C34.6375 36.9741 28.8741 37.688 25.0001 37.688ZM16.2052 21.2212V35.0229C16.2052 35.6463 19.3082 36.8694 25.0001 36.8694C30.6921 36.8694 33.7904 35.6273 33.7904 35.0038V21.2022C32.0485 22.2873 27.9651 22.7061 24.9954 22.7061C22.0257 22.7061 17.947 22.3063 16.2052 21.2212Z" fill="#E1251B"/>
<path d="M25 18.1801C22.5109 18.1801 17.7993 17.7422 17.7993 16.0908C17.7993 14.4394 22.5109 13.9968 25 13.9968C27.489 13.9968 32.2006 14.4346 32.2006 16.0908C32.2006 17.747 27.489 18.1801 25 18.1801ZM25 14.8487C20.85 14.8487 18.6607 15.7244 18.6369 16.1003C18.6131 16.4763 20.85 17.3472 25 17.3472C29.15 17.3472 31.3392 16.4715 31.363 16.1003C31.3868 15.7291 29.1452 14.8391 25 14.8391V14.8487Z" fill="#E1251B"/>
<path d="M27.2605 8.90918H22.7393V16.0908H27.2605V8.90918Z" fill="white"/>
<path d="M27.6796 16.5096H22.3208V8.48563H27.6796V16.5096ZM23.1584 15.6672H26.842V9.328H23.1584V15.6672Z" fill="#E1251B"/>
<path d="M27.6796 10.6701H22.3208V8.48563H27.6796V10.6701ZM23.1584 9.82772H26.842V9.3518H23.1584V9.82772Z" fill="#E1251B"/>
<path d="M31.7819 16.0908C31.7819 17.0093 28.7456 17.7565 25.0001 17.7565C21.2546 17.7565 18.2183 17.0093 18.2183 16.0908V19.4222C18.2183 20.3455 21.2546 21.0927 25.0001 21.0927C28.7456 21.0927 31.7819 20.3455 31.7819 19.4222V16.0908Z" fill="white"/>
<path d="M25 21.5163C22.5109 21.5163 17.7993 21.0784 17.7993 19.427V16.0956H18.6369C18.6607 16.4668 20.85 17.3425 25 17.3425C29.15 17.3425 31.3392 16.4668 31.363 16.0956H32.2006V19.427C32.2006 21.0784 27.489 21.5163 25 21.5163ZM18.6369 17.1331V19.4127C18.6369 19.784 20.8452 20.6596 25 20.6596C29.1547 20.6596 31.344 19.7982 31.363 19.427V17.1331C29.8924 17.9231 26.8418 18.1658 25 18.1658C23.1582 18.1658 20.1075 17.9374 18.6369 17.1331Z" fill="#E1251B"/>
<path d="M24.8333 35.1894C24.0186 35.1998 23.21 35.0492 22.4537 34.7462C21.6974 34.4431 21.0084 33.9938 20.4263 33.4238L21.992 31.5534C22.7321 32.321 23.7353 32.7801 24.8 32.8384C25.3125 32.8647 25.818 32.7097 26.2277 32.4006C26.4039 32.2502 26.5428 32.0611 26.6337 31.8481C26.7245 31.6351 26.7647 31.4039 26.7512 31.1727C26.7629 30.942 26.7162 30.712 26.6156 30.5041C26.515 30.2961 26.3636 30.1169 26.1754 29.9829C25.7329 29.6747 25.2005 29.5224 24.6619 29.5498C23.9839 29.5613 23.3152 29.7102 22.6964 29.9877L21.2163 29.0311L21.5542 23.2296H28.7834V25.4997H23.7958L23.6625 27.5319C24.1681 27.4027 24.6875 27.3356 25.2093 27.332C26.2823 27.2859 27.3368 27.6233 28.1837 28.2839C28.9452 28.9121 29.3307 29.8639 29.3307 31.1394C29.3484 31.6918 29.2456 32.2415 29.0295 32.7503C28.8133 33.259 28.489 33.7146 28.079 34.0853C27.1765 34.8521 26.0161 35.2468 24.8333 35.1894Z" fill="white"/>
<path d="M18.6892 40.3531H22.311V44.8601H21.0355V41.4478H19.8885C19.8944 41.9499 19.8722 42.452 19.8219 42.9517C19.7926 43.29 19.7304 43.6248 19.6363 43.9511C19.5784 44.1742 19.4674 44.3799 19.3127 44.5507C19.1789 44.6823 19.0158 44.7801 18.8368 44.8363C18.6399 44.8902 18.4364 44.9159 18.2323 44.9124C18.0223 44.9105 17.8132 44.885 17.6089 44.8363L17.685 43.7845C17.7754 43.7904 17.866 43.7904 17.9563 43.7845C18.0712 43.7908 18.1845 43.7553 18.2752 43.6846C18.3861 43.5621 18.4631 43.4128 18.4989 43.2515C18.5867 42.9074 18.6361 42.5547 18.6464 42.1997C18.6749 41.7666 18.6892 41.1384 18.6892 40.3531Z" fill="#E1251B"/>
<path d="M25.6995 44.96C25.3877 44.9715 25.0768 44.9196 24.7856 44.8076C24.4944 44.6955 24.2289 44.5256 24.0052 44.308C23.7796 44.0887 23.6021 43.8248 23.4841 43.5331C23.3662 43.2413 23.3102 42.9283 23.3199 42.6137C23.3072 41.9998 23.5323 41.4046 23.9481 40.9528C24.15 40.731 24.3974 40.5554 24.6734 40.4379C24.9493 40.3205 25.2474 40.2639 25.5472 40.2722C25.8556 40.2527 26.1642 40.3063 26.4478 40.4288C26.7315 40.5512 26.9823 40.7389 27.1796 40.9766C27.5637 41.4742 27.7622 42.0902 27.7412 42.7184C27.7412 42.7851 27.7412 42.8945 27.7412 43.0516H24.6049C24.649 43.308 24.7821 43.5406 24.9809 43.7084C25.1882 43.8661 25.4439 43.9468 25.7043 43.9368C26.1171 43.9264 26.5097 43.7557 26.7989 43.4609L27.527 44.1081C27.3099 44.3827 27.0315 44.6027 26.7142 44.7506C26.3969 44.8985 26.0495 44.9702 25.6995 44.96ZM24.5954 42.252H26.5229C26.4962 41.9934 26.3879 41.7501 26.2135 41.5572C26.1311 41.4705 26.0312 41.4022 25.9205 41.3571C25.8097 41.312 25.6906 41.291 25.571 41.2954C25.4521 41.2921 25.3337 41.3132 25.2232 41.3574C25.1127 41.4016 25.0124 41.468 24.9285 41.5524C24.7439 41.744 24.624 41.9887 24.5859 42.252H24.5954Z" fill="#E1251B"/>
<path d="M32.2958 40.3531V41.4478H30.9585V44.8601H29.664V41.4478H28.3267V40.3531H32.2958Z" fill="#E1251B"/>
<path d="M10.3464 38.9634C11.2663 38.9634 12.0121 38.2177 12.0121 37.2977C12.0121 36.3778 11.2663 35.632 10.3464 35.632C9.42643 35.632 8.68066 36.3778 8.68066 37.2977C8.68066 38.2177 9.42643 38.9634 10.3464 38.9634Z" fill="#E1251B"/>
<path d="M39.7341 38.9634C40.654 38.9634 41.3998 38.2177 41.3998 37.2977C41.3998 36.3778 40.654 35.632 39.7341 35.632C38.8141 35.632 38.0684 36.3778 38.0684 37.2977C38.0684 38.2177 38.8141 38.9634 39.7341 38.9634Z" fill="#E1251B"/>
</svg>
