<svg width="50" height="50" viewBox="0 0 50 50" fill="none" xmlns="http://www.w3.org/2000/svg">
<path d="M25 50C38.8071 50 50 38.8071 50 25C50 11.1929 38.8071 0 25 0C11.1929 0 0 11.1929 0 25C0 38.8071 11.1929 50 25 50Z" fill="#E1251B"/>
<path d="M25 47.9155C37.6558 47.9155 47.9154 37.6559 47.9154 25C47.9154 12.3441 37.6558 2.08453 25 2.08453C12.3441 2.08453 2.08447 12.3441 2.08447 25C2.08447 37.6559 12.3441 47.9155 25 47.9155Z" fill="white"/>
<path d="M9.56152 23.2819V18.8702H11.3605C11.8126 18.8432 12.2571 18.9954 12.5979 19.2937C12.754 19.4331 12.8775 19.6052 12.9598 19.7976C13.042 19.9901 13.0809 20.1982 13.0738 20.4074C13.0825 20.6244 13.0415 20.8404 12.9541 21.0392C12.8667 21.2379 12.7351 21.4141 12.5693 21.5544C12.2016 21.8321 11.7496 21.9749 11.2891 21.9589H10.5324V23.2819H9.56152ZM10.5134 21.0927H11.2796C11.485 21.1047 11.6874 21.0384 11.8459 20.9071C11.9114 20.8465 11.9635 20.7728 11.9988 20.6909C12.034 20.6089 12.0517 20.5204 12.0506 20.4312C12.0526 20.3414 12.0349 20.2522 11.9987 20.17C11.9626 20.0877 11.9088 20.0144 11.8412 19.9553C11.6736 19.8321 11.4682 19.7715 11.2606 19.7839H10.5324L10.5134 21.0927Z" fill="#E1251B"/>
<path d="M13.4922 23.2819V19.9029H14.444V20.5835C14.5133 20.3566 14.6572 20.1597 14.8525 20.0249C15.0478 19.8902 15.2829 19.8253 15.5196 19.8411V20.8405H15.472C15.3308 20.8307 15.1891 20.8525 15.0574 20.9044C14.9257 20.9562 14.8072 21.0368 14.7105 21.1403C14.5139 21.3952 14.4189 21.7141 14.444 22.035V23.2819H13.4922Z" fill="#E1251B"/>
<path d="M18.9224 22.8441C18.7489 23.0132 18.5432 23.1458 18.3176 23.2341C18.092 23.3223 17.851 23.3645 17.6088 23.3581C17.3688 23.3648 17.1298 23.3227 16.9065 23.2343C16.6832 23.146 16.4801 23.0132 16.3096 22.8441C16.1437 22.6811 16.0119 22.4867 15.9219 22.2722C15.832 22.0577 15.7856 21.8274 15.7856 21.5948C15.7856 21.3622 15.832 21.132 15.9219 20.9175C16.0119 20.703 16.1437 20.5085 16.3096 20.3455C16.4822 20.1799 16.6858 20.0501 16.9088 19.9635C17.1318 19.8769 17.3697 19.8353 17.6088 19.8411C17.8481 19.834 18.0864 19.8749 18.3096 19.9616C18.5328 20.0483 18.7363 20.1788 18.9081 20.3455C19.0747 20.5086 19.2071 20.7033 19.2975 20.9183C19.3879 21.1332 19.4345 21.364 19.4345 21.5972C19.4345 21.8304 19.3879 22.0612 19.2975 22.2761C19.2071 22.4911 19.0747 22.6858 18.9081 22.8489L18.9224 22.8441ZM17.6088 22.5348C17.7279 22.5396 17.8465 22.5177 17.956 22.4708C18.0655 22.4238 18.1632 22.353 18.2418 22.2635C18.4012 22.0799 18.4889 21.845 18.4889 21.602C18.4889 21.3589 18.4012 21.124 18.2418 20.9404C18.1628 20.8511 18.0652 20.7801 17.9559 20.7324C17.8465 20.6847 17.7281 20.6615 17.6088 20.6644C17.4891 20.6596 17.3697 20.6814 17.2595 20.7283C17.1492 20.7752 17.0507 20.846 16.9711 20.9357C16.8103 21.1177 16.7251 21.3544 16.7331 21.5972C16.7277 21.8413 16.8163 22.0781 16.9806 22.2587C17.0599 22.3465 17.1569 22.4164 17.2652 22.464C17.3734 22.5116 17.4906 22.5357 17.6088 22.5348Z" fill="#E1251B"/>
<path d="M21.3735 23.3438C21.1691 23.3468 20.9665 23.3058 20.7793 23.2237C20.5921 23.1416 20.4247 23.0203 20.2884 22.8679C19.9948 22.5058 19.8345 22.0538 19.8345 21.5877C19.8345 21.1215 19.9948 20.6695 20.2884 20.3074C20.4252 20.1545 20.5934 20.0327 20.7814 19.9506C20.9695 19.8685 21.1731 19.8279 21.3783 19.8315C21.5806 19.8289 21.7808 19.8731 21.9632 19.9606C22.1457 20.0481 22.3055 20.1766 22.4301 20.336V18.6703H23.3819V23.2724H22.4301V22.7965C22.3135 22.9685 22.1558 23.1087 21.9713 23.2043C21.7868 23.2999 21.5813 23.3478 21.3735 23.3438ZM21.0309 22.273C21.1043 22.3556 21.1945 22.4216 21.2954 22.4668C21.3963 22.5119 21.5057 22.5351 21.6162 22.5347C21.7269 22.536 21.8366 22.5132 21.9376 22.468C22.0387 22.4229 22.1288 22.3563 22.2016 22.273C22.3648 22.0829 22.4498 21.838 22.4396 21.5877C22.4501 21.3416 22.3648 21.1011 22.2016 20.9166C22.1294 20.8325 22.0394 20.7655 21.9382 20.7202C21.837 20.675 21.7271 20.6527 21.6162 20.6549C21.5056 20.6536 21.3959 20.6764 21.2949 20.7216C21.1938 20.7668 21.1037 20.8333 21.0309 20.9166C20.8768 21.1091 20.7928 21.3483 20.7928 21.5948C20.7928 21.8413 20.8768 22.0805 21.0309 22.273Z" fill="#E1251B"/>
<path d="M25.2235 23.3438C25.0673 23.3532 24.9109 23.3282 24.7654 23.2707C24.6198 23.2131 24.4887 23.1243 24.3812 23.0106C24.1656 22.7549 24.0565 22.426 24.0766 22.0921V19.9029H25.0284V21.8066C25.0335 21.9893 25.1025 22.1645 25.2235 22.3015C25.2775 22.3607 25.3439 22.4071 25.418 22.4376C25.492 22.468 25.5719 22.4817 25.6519 22.4776C25.7332 22.4812 25.8143 22.4673 25.8898 22.4369C25.9653 22.4065 26.0335 22.3604 26.0897 22.3015C26.2069 22.1569 26.2648 21.9732 26.2515 21.7875V19.8839H27.2033V23.2629H26.2515V22.787C26.1393 22.9573 25.9868 23.0973 25.8074 23.1944C25.6281 23.2916 25.4275 23.3429 25.2235 23.3438Z" fill="#E1251B"/>
<path d="M29.5067 23.3581C29.2681 23.3705 29.0294 23.3342 28.8053 23.2515C28.5811 23.1687 28.3761 23.0412 28.2028 22.8767C28.0295 22.7122 27.8915 22.5141 27.7972 22.2945C27.7029 22.075 27.6543 21.8385 27.6543 21.5996C27.6543 21.3606 27.7029 21.1242 27.7972 20.9046C27.8915 20.6851 28.0295 20.487 28.2028 20.3225C28.3761 20.158 28.5811 20.0305 28.8053 19.9477C29.0294 19.8649 29.2681 19.8286 29.5067 19.8411C29.7607 19.8346 30.0131 19.8842 30.2459 19.9861C30.4786 20.0881 30.6861 20.2401 30.8536 20.4312L30.292 21.0023C30.0847 20.791 29.8027 20.6696 29.5067 20.6644C29.395 20.6627 29.2844 20.6862 29.183 20.7331C29.0817 20.7801 28.9922 20.8493 28.9213 20.9357C28.7643 21.1197 28.6812 21.3554 28.6881 21.5972C28.6789 21.8416 28.7641 22.0802 28.9261 22.2635C29.0021 22.3524 29.0972 22.423 29.2044 22.47C29.3115 22.517 29.4279 22.5391 29.5448 22.5348C29.8406 22.5198 30.1189 22.39 30.3205 22.1731L30.8821 22.7394C30.7166 22.9352 30.5145 23.0968 30.2872 23.2153C30.0414 23.3222 29.7744 23.371 29.5067 23.3581Z" fill="#E1251B"/>
<path d="M32.5386 23.32C32.276 23.3368 32.0165 23.2554 31.8105 23.0916C31.7146 22.9862 31.6422 22.8618 31.5979 22.7264C31.5536 22.5911 31.5385 22.4479 31.5535 22.3063V20.7215H31.1489V19.9029H31.5535V19.0367H32.5053V19.8982H33.3144V20.7167H32.5148V22.1445C32.5148 22.3634 32.6148 22.4729 32.8242 22.4729C32.994 22.4824 33.1632 22.4462 33.3144 22.3682V23.1392C33.0774 23.2699 32.8089 23.3325 32.5386 23.32Z" fill="#E1251B"/>
<path d="M38.5495 22.8441C38.3759 23.0113 38.1708 23.1424 37.9461 23.2298C37.7215 23.3172 37.4817 23.3592 37.2407 23.3533C37.0018 23.36 36.764 23.3183 36.5415 23.2308C36.3191 23.1433 36.1166 23.0118 35.9462 22.8441C35.7809 22.6808 35.6496 22.4862 35.56 22.2718C35.4705 22.0573 35.4243 21.8272 35.4243 21.5948C35.4243 21.3624 35.4705 21.1323 35.56 20.9179C35.6496 20.7034 35.7809 20.5089 35.9462 20.3455C36.1199 20.1783 36.325 20.0472 36.5496 19.9598C36.7743 19.8724 37.014 19.8304 37.255 19.8363C37.4938 19.8305 37.7314 19.8725 37.9538 19.96C38.1761 20.0474 38.3787 20.1785 38.5495 20.3455C38.7137 20.5095 38.844 20.7043 38.9328 20.9186C39.0217 21.133 39.0674 21.3628 39.0674 21.5948C39.0674 21.8269 39.0217 22.0566 38.9328 22.271C38.844 22.4854 38.7137 22.6801 38.5495 22.8441ZM37.2502 22.53C37.37 22.5352 37.4895 22.5135 37.5998 22.4666C37.7102 22.4196 37.8086 22.3486 37.888 22.2587C38.0446 22.0739 38.1306 21.8395 38.1306 21.5972C38.1306 21.3549 38.0446 21.1205 37.888 20.9357C37.8078 20.8465 37.7093 20.7756 37.5993 20.728C37.4892 20.6803 37.3702 20.657 37.2502 20.6596C37.1304 20.6545 37.011 20.6761 36.9007 20.7231C36.7903 20.77 36.6919 20.841 36.6125 20.9309C36.4531 21.1144 36.3654 21.3494 36.3654 21.5924C36.3654 21.8355 36.4531 22.0704 36.6125 22.254C36.6933 22.3453 36.7931 22.4178 36.9049 22.4663C37.0168 22.5148 37.1379 22.5382 37.2598 22.5348L37.2502 22.53Z" fill="#E1251B"/>
<path d="M39.744 23.2819V20.7215H39.3442V19.9362H39.744V19.7221C39.7214 19.4233 39.8171 19.1276 40.0105 18.8987C40.1168 18.8055 40.2405 18.7344 40.3745 18.6895C40.5085 18.6445 40.6501 18.6267 40.791 18.637C41.0215 18.6322 41.2513 18.6643 41.4716 18.7322V19.5127C41.332 19.4581 41.1837 19.4291 41.0338 19.427C40.8053 19.427 40.6863 19.5507 40.6863 19.7935V19.9267H41.4621V20.7072H40.7006V23.2677L39.744 23.2819Z" fill="#E1251B"/>
<path d="M11.4791 30.9347C11.1709 30.9471 10.8634 30.8965 10.5753 30.786C10.2873 30.6755 10.0248 30.5075 9.80387 30.2922C9.48311 29.9673 9.26614 29.5544 9.18052 29.1059C9.09489 28.6574 9.14448 28.1936 9.32298 27.7734C9.50148 27.3532 9.80083 26.9955 10.183 26.7457C10.5652 26.4959 11.013 26.3654 11.4696 26.3706C11.7931 26.3633 12.1153 26.4132 12.4214 26.5182C12.7019 26.6324 12.961 26.7933 13.1877 26.9941L12.5737 27.7318C12.4145 27.5911 12.2348 27.4755 12.0407 27.3891C11.8431 27.3146 11.6331 27.2791 11.422 27.2844C11.2516 27.282 11.0828 27.317 10.9274 27.3869C10.772 27.4568 10.6338 27.5599 10.5225 27.6889C10.2816 27.9634 10.1487 28.3161 10.1487 28.6812C10.1487 29.0464 10.2816 29.3991 10.5225 29.6735C10.6442 29.8033 10.7918 29.906 10.9558 29.9748C11.1198 30.0437 11.2965 30.0773 11.4743 30.0733C11.7995 30.0834 12.1194 29.9901 12.3881 29.8068V29.1453H11.4458V28.3076H13.3495V30.2113C12.834 30.6706 12.1695 30.9276 11.4791 30.9347Z" fill="#E1251B"/>
<path d="M14.2158 30.849V26.4373H17.5472V27.2987H15.1677V28.1934H17.2474V29.0596H15.1819V29.9829H17.5615V30.8443L14.2158 30.849Z" fill="#E1251B"/>
<path d="M18.3706 30.8491V26.4373H20.3885C20.6225 26.4212 20.8574 26.4525 21.079 26.5294C21.3006 26.6062 21.5045 26.7271 21.6782 26.8846C21.807 27.0199 21.9067 27.1799 21.9714 27.3551C22.036 27.5302 22.0642 27.7167 22.0542 27.9031C22.0736 28.2055 21.99 28.5055 21.8172 28.7544C21.6444 29.0032 21.3925 29.1863 21.1024 29.2738L22.1827 30.8491H21.05L20.0982 29.4213H19.3415V30.8491H18.3706ZM19.3224 28.5789H20.3076C20.5049 28.591 20.6997 28.53 20.8549 28.4076C20.9215 28.3484 20.9737 28.2747 21.0075 28.1922C21.0414 28.1097 21.0559 28.0206 21.05 27.9317C21.0576 27.8421 21.0434 27.752 21.0086 27.6691C20.9738 27.5863 20.9194 27.5131 20.8501 27.4557C20.6873 27.3384 20.4888 27.2812 20.2886 27.2939H19.3367L19.3224 28.5789Z" fill="#E1251B"/>
<path d="M22.8442 30.849V26.4373H23.8913L25.0477 28.3029L26.1757 26.4373H27.2227V30.849H26.2709V27.9935L25.0287 29.8972H25.0049L23.7961 27.9888V30.8443L22.8442 30.849Z" fill="#E1251B"/>
<path d="M27.7461 30.849L29.6498 26.4039H30.5445L32.4482 30.849H31.4107L31.0061 29.8591H29.1405L28.736 30.849H27.7461ZM29.507 29.0024H30.6778L30.0924 27.5747L29.507 29.0024Z" fill="#E1251B"/>
<path d="M32.9336 30.849V26.4373H33.8283L35.8986 29.1548V26.4373H36.8504V30.849H36.0318L33.895 28.0459V30.849H32.9336Z" fill="#E1251B"/>
<path d="M39.0253 30.849V29.1072L37.3311 26.4373H38.4637L39.5012 28.2077L40.5721 26.4373H41.6905L39.9772 29.0881V30.849H39.0253Z" fill="#E1251B"/>
<path d="M11.3078 14.92L8.27148 12.1359L9.35658 10.9461C9.54388 10.7262 9.77268 10.5453 10.0299 10.4138C10.2871 10.2824 10.5678 10.2029 10.8557 10.1799C11.1294 10.1671 11.403 10.2087 11.6605 10.3022C11.9181 10.3957 12.1546 10.5393 12.3563 10.7247C12.5581 10.9101 12.7212 11.1336 12.8361 11.3824C12.951 11.6311 13.0155 11.9002 13.0259 12.174C13.0262 12.4644 12.9687 12.752 12.8568 13.02C12.7448 13.288 12.5807 13.5311 12.3739 13.735L11.3078 14.92ZM11.3078 13.7017L11.7838 13.1829C11.9451 13.0001 12.0502 12.7745 12.0865 12.5333C12.1227 12.2921 12.0885 12.0456 11.9879 11.8234C11.8874 11.6012 11.7248 11.4128 11.5197 11.2808C11.3146 11.1488 11.0758 11.0789 10.8319 11.0794C10.6663 11.0863 10.504 11.128 10.3556 11.2018C10.2072 11.2756 10.076 11.3798 9.97051 11.5077L9.4946 12.0217L11.3078 13.7017Z" fill="#E1251B"/>
<path d="M15.5815 11.0461C15.4058 11.1761 15.2056 11.2692 14.993 11.3199C14.7803 11.3706 14.5596 11.3778 14.3442 11.3411C14.1291 11.2993 13.925 11.2139 13.7441 11.0904C13.5632 10.9668 13.4095 10.8076 13.2924 10.6225C13.0411 10.273 12.9353 9.83963 12.9973 9.41367C13.0268 9.20531 13.1008 9.00571 13.2141 8.82837C13.3274 8.65103 13.4774 8.50007 13.6541 8.38569C13.8243 8.25342 14.0235 8.16334 14.2352 8.1228C14.447 8.08227 14.6654 8.09244 14.8724 8.15249C15.2916 8.28541 15.6505 8.56176 15.8861 8.933C15.9317 8.99686 15.973 9.06363 16.0099 9.13288L14.1966 10.375C14.3253 10.5022 14.4928 10.5827 14.6725 10.6035C14.8541 10.6197 15.0357 10.5726 15.1865 10.4702C15.4206 10.3038 15.581 10.053 15.6339 9.77061L16.3097 9.85628C16.2893 10.0976 16.2128 10.3308 16.0864 10.5373C15.96 10.7439 15.7871 10.9181 15.5815 11.0461ZM13.873 9.91815L14.9866 9.15668C14.87 9.01694 14.7115 8.91848 14.5345 8.87588C14.4523 8.85905 14.3674 8.85968 14.2854 8.87771C14.2035 8.89575 14.1262 8.9308 14.0586 8.98059C13.9887 9.02541 13.9286 9.08395 13.882 9.15267C13.8354 9.22138 13.8032 9.29884 13.7873 9.38036C13.7612 9.56416 13.791 9.75157 13.873 9.91815Z" fill="#E1251B"/>
<path d="M18.1467 9.60403C18.0139 9.66512 17.8694 9.69676 17.7232 9.69676C17.5769 9.69676 17.4324 9.66512 17.2996 9.60403C17.0226 9.46031 16.8101 9.21722 16.7047 8.92346L15.9194 7.01979L16.7428 6.67237L17.4233 8.29525C17.4769 8.45809 17.5888 8.59539 17.7374 8.68074C17.8045 8.715 17.8787 8.73286 17.954 8.73286C18.0293 8.73286 18.1035 8.715 18.1705 8.68074C18.2416 8.65403 18.3063 8.6127 18.3604 8.55941C18.4145 8.50612 18.4568 8.44207 18.4846 8.3714C18.5311 8.20467 18.5142 8.02663 18.437 7.87168L17.7565 6.28211L18.5846 5.93469L19.8029 8.84731L18.9748 9.18998L18.8035 8.78069C18.7659 8.95969 18.687 9.1274 18.5729 9.27038C18.4589 9.41336 18.3129 9.52763 18.1467 9.60403Z" fill="#E1251B"/>
<path d="M21.4973 8.51416C21.2614 8.58172 21.0088 8.55968 20.7882 8.45229C20.6798 8.37565 20.5887 8.27721 20.5207 8.16329C20.4527 8.04936 20.4092 7.92247 20.3931 7.79077L20.06 6.33446L19.6935 6.41536L19.5127 5.66817L19.8839 5.58726L19.7031 4.802L20.574 4.60211L20.7548 5.38738L21.4878 5.23508L21.6543 5.98228L20.9405 6.13457L21.2403 7.4481C21.2879 7.64799 21.4021 7.7289 21.5877 7.68606C21.7392 7.65075 21.8797 7.57886 21.997 7.47666L22.154 8.17626C21.971 8.3481 21.7435 8.46517 21.4973 8.51416Z" fill="#E1251B"/>
<path d="M24.1383 8.1858C23.9216 8.20619 23.703 8.18116 23.4965 8.11233C23.29 8.0435 23.1001 7.93237 22.939 7.78603C22.6179 7.49346 22.4234 7.08731 22.3967 6.65373C22.3701 6.22015 22.5133 5.79324 22.7962 5.46354C22.9493 5.29727 23.1339 5.16312 23.3394 5.06891C23.5448 4.97469 23.7669 4.92229 23.9928 4.91476C24.2187 4.90723 24.4439 4.94472 24.6551 5.02505C24.8664 5.10538 25.0596 5.22693 25.2234 5.38264L24.7475 5.94422C24.5413 5.76053 24.2714 5.66486 23.9955 5.67771C23.8904 5.68227 23.7877 5.7108 23.6954 5.76111C23.603 5.81143 23.5233 5.8822 23.4625 5.96802C23.3264 6.14758 23.2634 6.37209 23.2864 6.59623C23.2923 6.823 23.3842 7.03904 23.5434 7.20065C23.6207 7.27793 23.7141 7.3372 23.8169 7.37422C23.9197 7.41124 24.0295 7.4251 24.1383 7.41481C24.4127 7.38552 24.6643 7.2486 24.8379 7.03408L25.3947 7.50999C25.2515 7.69995 25.0739 7.86138 24.8712 7.98591C24.6464 8.11027 24.3951 8.17883 24.1383 8.1858Z" fill="#E1251B"/>
<path d="M25.7998 8.05252L26.3566 3.76926L27.2418 3.88824L27.0372 5.46353C27.1584 5.32647 27.3106 5.2204 27.4812 5.15416C27.6517 5.08793 27.8356 5.06346 28.0176 5.08279C28.1635 5.09369 28.3053 5.13589 28.4334 5.20651C28.5615 5.27714 28.6729 5.37454 28.76 5.49208C28.9269 5.75669 28.9865 6.07501 28.9266 6.38205L28.6648 8.4047L27.7749 8.29048L28.0033 6.54386C28.0355 6.38122 28.0085 6.21242 27.9272 6.06794C27.8838 6.00706 27.8277 5.95636 27.7628 5.91937C27.6979 5.88238 27.6257 5.86 27.5512 5.85378C27.4761 5.84 27.399 5.84265 27.325 5.86155C27.2511 5.88045 27.1821 5.91514 27.1229 5.96324C26.9988 6.08234 26.9241 6.24372 26.9135 6.41536L26.685 8.16198L25.7998 8.05252Z" fill="#E1251B"/>
<path d="M29.312 8.64745L30.5113 4.52124L31.3727 4.76872L30.1687 8.89493L29.312 8.64745Z" fill="#E1251B"/>
<path d="M31.6437 9.51837C31.3834 9.4126 31.1715 9.21425 31.0488 8.96154C30.989 8.83927 30.958 8.70499 30.958 8.56891C30.958 8.43284 30.989 8.29855 31.0488 8.17628C31.0991 8.03482 31.1851 7.90878 31.2985 7.81038C31.412 7.71198 31.5489 7.64457 31.696 7.6147C32.0219 7.56321 32.3558 7.61829 32.6478 7.77175C32.8866 7.88248 33.1053 8.03204 33.2951 8.21435V8.16676C33.4569 7.81458 33.3332 7.54807 32.9239 7.3577C32.651 7.23862 32.3596 7.16777 32.0625 7.1483L32.1434 6.43442C32.5644 6.44425 32.9789 6.53979 33.3617 6.71521C33.5433 6.78162 33.7094 6.88419 33.8501 7.01672C33.9908 7.14925 34.1032 7.30897 34.1803 7.4862C34.2399 7.66308 34.2622 7.8504 34.2458 8.03633C34.2294 8.22226 34.1747 8.40279 34.0851 8.56653L33.3141 10.218L32.5289 9.85627L32.6716 9.54692C32.5084 9.61677 32.332 9.65038 32.1545 9.64545C31.977 9.64052 31.8028 9.59716 31.6437 9.51837ZM32.1481 9.04245C32.3095 9.12488 32.4941 9.15005 32.6716 9.11384C32.7472 9.09833 32.8179 9.06466 32.8776 9.01574C32.9373 8.96683 32.9842 8.90413 33.0143 8.83305L33.0809 8.69027C32.9504 8.54016 32.7878 8.42141 32.605 8.34285C32.4593 8.26495 32.2928 8.23497 32.1291 8.25719C32.0656 8.26869 32.0062 8.29613 31.9562 8.33692C31.9063 8.37771 31.8675 8.43051 31.8435 8.49039C31.8189 8.53822 31.8061 8.59125 31.8061 8.64506C31.8061 8.69887 31.8189 8.75189 31.8435 8.79973C31.915 8.91252 32.0222 8.99801 32.1481 9.04245Z" fill="#E1251B"/>
<path d="M33.833 10.5178L35.6938 7.97165L36.4125 8.49992L36.1507 8.86162C36.3229 8.80025 36.5073 8.78076 36.6885 8.80476C36.8698 8.82876 37.0427 8.89556 37.193 8.99963C37.32 9.07734 37.4285 9.18196 37.5107 9.30612C37.5929 9.43029 37.6469 9.57097 37.6689 9.71827C37.6866 10.0305 37.5864 10.3379 37.3881 10.5797L36.1698 12.2264L35.4464 11.6981L36.4886 10.2703C36.6008 10.1373 36.6616 9.96843 36.66 9.79442C36.6511 9.72033 36.626 9.6491 36.5865 9.58578C36.547 9.52245 36.4941 9.46857 36.4315 9.42796C36.3726 9.37929 36.3036 9.34424 36.2296 9.32532C36.1556 9.30639 36.0782 9.30407 36.0032 9.3185C35.8371 9.36208 35.694 9.46768 35.6034 9.61357L34.5612 11.0413L33.833 10.5178Z" fill="#E1251B"/>
<path d="M37.4264 13.6256C37.2989 13.4841 37.2029 13.3172 37.1446 13.1359C37.0864 12.9546 37.0672 12.763 37.0885 12.5738C37.139 12.1352 37.3615 11.7347 37.7072 11.4601C37.8609 11.307 38.0436 11.186 38.2446 11.1043C38.4456 11.0226 38.6609 10.9817 38.8779 10.9842C39.0687 10.9882 39.2565 11.0327 39.4288 11.1147C39.6011 11.1968 39.754 11.3145 39.8774 11.4601C40.0052 11.6003 40.0988 11.7683 40.1508 11.9508C40.2029 12.1333 40.2119 12.3253 40.1772 12.5119L41.3384 11.4792L41.9333 12.1502L38.7161 15.0057L38.1212 14.3204L38.4639 14.0206C38.2718 14.0453 38.0766 14.0222 37.8956 13.9533C37.7146 13.8843 37.5534 13.7718 37.4264 13.6256ZM37.9689 12.7213C37.9576 12.8236 37.9679 12.9271 37.9989 13.0251C38.03 13.1232 38.0813 13.2137 38.1494 13.2908C38.2175 13.3679 38.301 13.4298 38.3945 13.4727C38.488 13.5156 38.5895 13.5385 38.6923 13.5399C38.9245 13.5332 39.1463 13.4418 39.3158 13.2829C39.4935 13.1375 39.6092 12.9299 39.6394 12.7023C39.6534 12.6 39.6449 12.4959 39.6145 12.3973C39.584 12.2986 39.5325 12.2078 39.4633 12.1312C39.3936 12.056 39.3089 11.9963 39.2146 11.9561C39.1202 11.9159 39.0185 11.8961 38.916 11.898C38.6813 11.8993 38.4562 11.9914 38.2878 12.155C38.1135 12.2965 37.9996 12.4989 37.9689 12.7213Z" fill="#E1251B"/>
<path d="M13.126 36.9931L10.8559 39.3727L10.1943 38.7493L13.0498 35.7605L15.1391 37.7403L14.5775 38.3352L13.126 36.9931Z" fill="#E1251B"/>
<path d="M14.0491 42.0284C13.8666 41.9133 13.7087 41.7632 13.5845 41.5868C13.4603 41.4103 13.3724 41.211 13.3257 41.0004C13.2797 40.7861 13.2788 40.5645 13.3231 40.3499C13.3673 40.1352 13.4557 39.9321 13.5827 39.7535C13.8052 39.3931 14.158 39.1323 14.5678 39.0253C14.7708 38.9697 14.9836 38.9596 15.1909 38.9958C15.3983 39.032 15.595 39.1136 15.7672 39.2347C15.9556 39.3408 16.116 39.4902 16.2352 39.6706C16.3544 39.8511 16.4289 40.0573 16.4525 40.2722C16.4911 40.7096 16.373 41.1465 16.1193 41.5048C16.1193 41.5477 16.048 41.6095 15.9813 41.7L14.1443 40.5007C14.0693 40.667 14.0591 40.8554 14.1157 41.0289C14.1764 41.201 14.2961 41.3461 14.4536 41.4382C14.6954 41.5915 14.9873 41.6444 15.2674 41.5857L15.4531 42.2425C15.2186 42.3192 14.9694 42.3398 14.7256 42.3026C14.4817 42.2654 14.25 42.1715 14.0491 42.0284ZM14.4393 40.02L15.5673 40.7576C15.6518 40.5953 15.6819 40.4101 15.6529 40.2294C15.6379 40.147 15.6056 40.0687 15.558 39.9998C15.5104 39.9308 15.4487 39.8728 15.3769 39.8296C15.3077 39.7832 15.2301 39.7509 15.1484 39.7346C15.0668 39.7183 14.9827 39.7182 14.901 39.7344C14.7217 39.7806 14.5608 39.8802 14.4393 40.02Z" fill="#E1251B"/>
<path d="M16.124 44.2318L17.5518 40.3959L18.3894 40.7053L18.2276 41.1336C18.3848 41.0208 18.5677 40.9491 18.7597 40.925C18.9517 40.9009 19.1467 40.9252 19.327 40.9956C19.5057 41.0604 19.6689 41.1622 19.8058 41.2942C19.9428 41.4262 20.0504 41.5855 20.1217 41.7618C20.2904 42.1702 20.2904 42.6289 20.1217 43.0373C19.9885 43.449 19.6976 43.7913 19.3127 43.9891C19.143 44.0756 18.9569 44.1254 18.7667 44.1353C18.5765 44.1451 18.3863 44.1148 18.2085 44.0462C18.031 43.9815 17.8705 43.8772 17.7394 43.7411C17.6083 43.605 17.5099 43.4408 17.4518 43.261L16.9759 44.5317L16.124 44.2318ZM17.8183 42.8326C17.856 42.9285 17.9134 43.0154 17.9869 43.0876C18.0604 43.1598 18.1483 43.2156 18.2449 43.2516C18.3414 43.2875 18.4445 43.3027 18.5473 43.2961C18.6501 43.2895 18.7503 43.2613 18.8415 43.2134C19.0469 43.1022 19.2018 42.9165 19.2746 42.6946C19.3604 42.4808 19.3604 42.2421 19.2746 42.0283C19.2369 41.9325 19.1795 41.8456 19.106 41.7734C19.0325 41.7012 18.9446 41.6453 18.848 41.6094C18.7515 41.5735 18.6484 41.5583 18.5456 41.5649C18.4428 41.5715 18.3426 41.5997 18.2514 41.6476C18.0565 41.7677 17.9078 41.95 17.8292 42.165C17.7507 42.38 17.7468 42.6152 17.8183 42.8326Z" fill="#E1251B"/>
<path d="M20.8975 44.8363L21.2592 41.7L22.1634 41.8047L22.8582 43.2325L23.8672 42.0189L24.7667 42.1236L24.405 45.2551L23.5055 45.1504L23.7244 43.2467L22.7012 44.4413L21.9921 43.0707L21.7732 44.9363L20.8975 44.8363Z" fill="#E1251B"/>
<path d="M26.7844 45.1599C26.5053 45.2007 26.221 45.1381 25.9849 44.9838C25.8744 44.9 25.7827 44.7939 25.7159 44.6724C25.649 44.5509 25.6084 44.4167 25.5968 44.2785C25.5851 44.1403 25.6026 44.0011 25.6482 43.8701C25.6937 43.7391 25.7663 43.6192 25.8611 43.518C26.1142 43.3082 26.4277 43.1849 26.7559 43.1658C27.0168 43.1367 27.2809 43.1528 27.5364 43.2134V43.1611C27.4983 42.7756 27.2508 42.609 26.8035 42.6851C26.5076 42.7206 26.2206 42.8093 25.9563 42.9469L25.6565 42.2949C26.0222 42.0855 26.4273 41.9542 26.8463 41.9094C27.2292 41.8385 27.6245 41.9224 27.9457 42.1426C28.0794 42.2638 28.1878 42.4104 28.2646 42.5737C28.3414 42.7371 28.385 42.9141 28.393 43.0944L28.5929 44.9124L27.7315 45.0076L27.6982 44.665C27.5918 44.8097 27.4547 44.9292 27.2967 45.0148C27.1387 45.1003 26.9638 45.1499 26.7844 45.1599ZM26.9843 44.5174C27.1628 44.5028 27.3309 44.4271 27.4602 44.3033C27.5171 44.2517 27.5607 44.1871 27.5872 44.115C27.6138 44.0429 27.6224 43.9654 27.6125 43.8892V43.7322C27.4258 43.6694 27.2273 43.6498 27.0319 43.6751C26.8707 43.6838 26.7162 43.7419 26.5893 43.8416C26.542 43.8851 26.5059 43.9395 26.4844 44C26.4628 44.0606 26.4564 44.1254 26.4655 44.189C26.47 44.2429 26.4875 44.2949 26.5165 44.3405C26.5455 44.3861 26.5852 44.424 26.6321 44.4508C26.7388 44.5116 26.8628 44.535 26.9843 44.5174Z" fill="#E1251B"/>
<path d="M31.7202 40.7101L32.7101 43.7036L31.8582 43.9844L31.4822 42.8327L30.4352 43.1801L30.8159 44.3271L29.9831 44.6126L28.9932 41.6143L29.8451 41.3335L30.2258 42.4853L31.2681 42.1426L30.8873 40.9909L31.7202 40.7101Z" fill="#E1251B"/>
<path d="M34.9467 38.8873L36.56 41.6L35.8176 42.0426L34.8658 40.4626L34.742 42.6708L34.0186 43.0991L32.4053 40.3912L33.1477 39.9486L34.0995 41.5334L34.2138 39.3204L34.9467 38.8873Z" fill="#E1251B"/>
<path d="M37.5976 36.5125L39.744 38.8207L39.092 39.4299L38.4162 38.6922L38.0735 39.0254L38.2734 40.2152L37.5072 40.929L37.3073 39.5013C37.1195 39.5944 36.9063 39.623 36.7006 39.5826C36.4949 39.5421 36.3084 39.4349 36.1698 39.2776C36.0658 39.1761 35.9864 39.0521 35.9378 38.9152C35.8891 38.7782 35.8724 38.632 35.8891 38.4876C35.9438 38.1582 36.1122 37.8585 36.365 37.6404L37.5976 36.5125ZM37.5167 38.6303L37.9593 38.2163L37.4168 37.6357L36.9694 38.0497C36.8649 38.1367 36.7914 38.2553 36.76 38.3876C36.7507 38.4438 36.7555 38.5014 36.7737 38.5554C36.792 38.6093 36.8232 38.6579 36.8647 38.697C36.9011 38.7399 36.9474 38.7732 36.9997 38.794C37.052 38.8147 37.1086 38.8223 37.1645 38.816C37.3034 38.7949 37.4318 38.7298 37.531 38.6303H37.5167Z" fill="#E1251B"/>
<path d="M5.75409 26.6657C6.67404 26.6657 7.41981 25.92 7.41981 25C7.41981 24.0801 6.67404 23.3343 5.75409 23.3343C4.83415 23.3343 4.08838 24.0801 4.08838 25C4.08838 25.92 4.83415 26.6657 5.75409 26.6657Z" fill="#E1251B"/>
<path d="M44.1511 26.6657C45.071 26.6657 45.8168 25.92 45.8168 25C45.8168 24.0801 45.071 23.3343 44.1511 23.3343C43.2311 23.3343 42.4854 24.0801 42.4854 25C42.4854 25.92 43.2311 26.6657 44.1511 26.6657Z" fill="#E1251B"/>
</svg>
