<svg width="50" height="50" viewBox="0 0 50 50" fill="none" xmlns="http://www.w3.org/2000/svg">
<path d="M25 50C38.8071 50 50 38.8071 50 25C50 11.1929 38.8071 0 25 0C11.1929 0 0 11.1929 0 25C0 38.8071 11.1929 50 25 50Z" fill="#E1251B"/>
<path d="M24.9999 47.9155C37.6558 47.9155 47.9154 37.6559 47.9154 25C47.9154 12.3441 37.6558 2.08453 24.9999 2.08453C12.3441 2.08453 2.08447 12.3441 2.08447 25C2.08447 37.6559 12.3441 47.9155 24.9999 47.9155Z" fill="white"/>
<path d="M16.6572 33.8474V19.3223L13.4257 20.1123L12.5786 16.7809L17.8994 15.1913H20.6787V33.8474H16.6572Z" fill="#E1251B"/>
<path d="M30.0591 34.1614C28.7789 34.1835 27.507 33.9518 26.3169 33.4797C25.1267 33.0076 24.0419 32.3043 23.125 31.4106L25.5855 28.4742C27.0704 29.7973 28.5441 30.4588 30.0068 30.4588C30.8223 30.5069 31.6284 30.264 32.2817 29.7735C32.5567 29.5354 32.7736 29.2374 32.9155 28.9025C33.0574 28.5675 33.1206 28.2045 33.1003 27.8412C33.1124 27.4841 33.0368 27.1294 32.8799 26.8083C32.7231 26.4872 32.4899 26.2094 32.2008 25.9994C31.5017 25.5228 30.6663 25.2872 29.8212 25.3284C28.7528 25.3453 27.6988 25.5785 26.7229 26.0137L24.3719 24.4527L24.9002 15.3246H36.2746V18.8987H28.3934L28.1793 22.0969C28.9757 21.8938 29.794 21.7883 30.616 21.7828C32.3029 21.7068 33.9622 22.2312 35.299 23.2629C36.4983 24.2719 37.1218 25.7472 37.1218 27.7603C37.1624 28.6301 37.0132 29.4983 36.6845 30.3045C36.3557 31.1108 35.8553 31.8358 35.2181 32.4291C33.9141 33.5872 32.1944 34.1646 30.0591 34.1614Z" fill="#E1251B"/>
<path d="M16.5002 38.1259H21.5688V44.427H19.7793V39.6678H18.1802C18.1855 40.3718 18.1537 41.0755 18.085 41.7761C18.0421 42.2478 17.9561 42.7146 17.828 43.1706C17.7429 43.4856 17.5791 43.7738 17.3521 44.0082C17.1771 44.1913 16.9597 44.3286 16.7192 44.408C16.4436 44.4851 16.158 44.5204 15.872 44.5127C15.5674 44.5153 15.2637 44.4802 14.9678 44.408L15.0868 42.9802C15.2108 43.0033 15.3366 43.016 15.4627 43.0183C15.6233 43.025 15.7812 42.9763 15.9101 42.8803C16.0628 42.7065 16.1692 42.4969 16.2194 42.2711C16.3427 41.7902 16.4113 41.2968 16.4241 40.8005C16.4764 40.1057 16.5002 39.2252 16.5002 38.1259Z" fill="#E1251B"/>
<path d="M26.2564 44.5698C25.8189 44.5871 25.3824 44.5155 24.9734 44.3592C24.5644 44.203 24.1913 43.9654 23.8768 43.6608C23.561 43.3524 23.3131 42.9814 23.1492 42.5716C22.9853 42.1618 22.9089 41.7223 22.9249 41.2812C22.9069 40.4185 23.2242 39.5825 23.8102 38.9492C24.0919 38.6394 24.4372 38.394 24.8223 38.2297C25.2075 38.0655 25.6236 37.9862 26.0422 37.9973C26.4734 37.9707 26.9047 38.0465 27.3009 38.2186C27.6971 38.3906 28.047 38.654 28.3219 38.9872C28.8612 39.6807 29.1408 40.5411 29.1119 41.4192C29.1119 41.5144 29.1119 41.6714 29.1119 41.8951H24.7477C24.8051 42.26 24.9907 42.5924 25.2712 42.8327C25.5609 43.0518 25.9172 43.1644 26.2802 43.1515C26.8543 43.1431 27.4024 42.9108 27.8079 42.5043L28.8311 43.4085C28.5226 43.79 28.129 44.0937 27.6819 44.2954C27.2347 44.4971 26.7465 44.591 26.2564 44.5698ZM24.7144 40.7624H27.4081C27.37 40.4077 27.22 40.0743 26.9798 39.8106C26.8638 39.6903 26.7237 39.5959 26.5687 39.5335C26.4137 39.4712 26.2472 39.4424 26.0803 39.4489C25.9139 39.4438 25.7483 39.4728 25.5936 39.5342C25.4389 39.5956 25.2984 39.688 25.1808 39.8058C24.9277 40.0746 24.7646 40.4157 24.7144 40.7815V40.7624Z" fill="#E1251B"/>
<path d="M35.4652 38.1259V39.6536H33.5949V44.4127H31.7864V39.6536H29.916V38.1259H35.4652Z" fill="#E1251B"/>
<path d="M9.89439 15.3436C9.78452 15.5324 9.63626 15.696 9.45918 15.8239C9.28211 15.9518 9.08016 16.0411 8.86641 16.086C8.54973 16.1538 8.22008 16.1264 7.91893 16.0073C7.61778 15.8882 7.35858 15.6827 7.17392 15.4167C6.98927 15.1506 6.88741 14.8359 6.88116 14.5121C6.87492 14.1884 6.96456 13.87 7.13882 13.597C7.26021 13.401 7.42183 13.2331 7.613 13.1043C7.80416 12.9754 8.02051 12.8887 8.24771 12.8498L8.41904 13.5779C8.28388 13.6092 8.15643 13.6674 8.04437 13.7492C7.93232 13.831 7.83798 13.9346 7.76704 14.0539C7.7104 14.1409 7.67414 14.2396 7.66096 14.3426C7.64777 14.4456 7.658 14.5503 7.69089 14.6488C7.76608 14.8471 7.90724 15.0134 8.09066 15.1199C8.28103 15.2424 8.50882 15.293 8.73315 15.2627C8.84114 15.245 8.94378 15.2033 9.03354 15.1407C9.12331 15.0781 9.19792 14.9962 9.2519 14.901C9.32002 14.7825 9.36392 14.6516 9.38108 14.516C9.39824 14.3804 9.3883 14.2427 9.35184 14.111L10.0752 13.9492C10.1447 14.1738 10.169 14.41 10.1466 14.644C10.1196 14.894 10.0331 15.1339 9.89439 15.3436Z" fill="#E1251B"/>
<path d="M11.4603 14.5108L8.4668 11.7171L9.08073 11.0651L9.40912 11.3745C9.36681 11.1858 9.37205 10.9897 9.42439 10.8036C9.47673 10.6175 9.57451 10.4473 9.70894 10.3084C9.83627 10.1678 9.99214 10.056 10.1661 9.98054C10.3401 9.90503 10.5282 9.86753 10.7179 9.87056C10.9387 9.87196 11.157 9.91777 11.3598 10.0053C11.5625 10.0927 11.7456 10.2201 11.8982 10.3798C12.2333 10.6607 12.4437 11.0627 12.4835 11.4982C12.4969 11.6885 12.4703 11.8795 12.4056 12.059C12.3408 12.2385 12.2393 12.4025 12.1076 12.5405C11.9805 12.6801 11.8229 12.7884 11.6471 12.8569C11.4712 12.9254 11.2819 12.9523 11.0939 12.9355L12.0838 13.8588L11.4603 14.5108ZM10.8321 12.4167C10.9353 12.4218 11.0383 12.4039 11.1338 12.3644C11.2292 12.3249 11.3147 12.2648 11.3842 12.1883C11.4563 12.114 11.5112 12.0248 11.5449 11.9269C11.5787 11.829 11.5904 11.7249 11.5793 11.6219C11.5557 11.3891 11.4432 11.1743 11.2652 11.0223C11.1034 10.8598 10.8852 10.7661 10.656 10.7605C10.5531 10.7582 10.4509 10.7775 10.356 10.8172C10.2611 10.857 10.1756 10.9163 10.1051 10.9912C10.0346 11.0662 9.98073 11.1552 9.94691 11.2524C9.91309 11.3496 9.90012 11.4528 9.90883 11.5553C9.9346 11.7886 10.0487 12.0032 10.2277 12.155C10.3877 12.3171 10.6044 12.411 10.8321 12.4167Z" fill="#E1251B"/>
<path d="M15.4672 9.20902C15.3698 9.64928 15.1111 10.0371 14.742 10.2961C14.3729 10.5551 13.9202 10.6664 13.4731 10.6082C13.2576 10.5757 13.0514 10.4984 12.8678 10.3811C12.6841 10.2639 12.5272 10.1094 12.407 9.92766C12.279 9.75221 12.1896 9.55172 12.1445 9.3393C12.0994 9.12689 12.0996 8.90734 12.1453 8.69503C12.2406 8.25461 12.4981 7.86617 12.8667 7.60693C13.2353 7.34769 13.6879 7.23663 14.1346 7.29583C14.3499 7.32861 14.556 7.4061 14.7396 7.52331C14.9232 7.64052 15.0803 7.79485 15.2007 7.97639C15.3294 8.15147 15.4198 8.35179 15.4657 8.56422C15.5116 8.77664 15.5121 8.99638 15.4672 9.20902ZM14.3059 9.66114C14.4002 9.60185 14.4802 9.52247 14.5403 9.42869C14.6003 9.33491 14.6389 9.22902 14.6533 9.1186C14.6742 8.89239 14.6134 8.66619 14.482 8.48087C14.358 8.28593 14.1637 8.14619 13.9395 8.09061C13.8299 8.06493 13.716 8.06355 13.6058 8.08657C13.4957 8.10959 13.3919 8.15646 13.3017 8.22387C13.2077 8.28292 13.1281 8.36231 13.0688 8.45621C13.0095 8.55011 12.972 8.65611 12.9591 8.76642C12.9313 8.99317 12.9927 9.22185 13.1304 9.40415C13.2579 9.59191 13.4517 9.72451 13.673 9.77537C13.7803 9.80466 13.8929 9.80961 14.0024 9.78985C14.1119 9.77009 14.2156 9.72612 14.3059 9.66114Z" fill="#E1251B"/>
<path d="M16.5764 9.04245L15.3247 6.13934L16.1433 5.78716L16.6573 6.9722L17.1808 5.3398L18.1326 4.93051L17.5853 6.57719L19.5128 7.76223L18.561 8.18104L17.3093 7.41481L17.1142 7.98115L17.414 8.67599L16.5764 9.04245Z" fill="#E1251B"/>
<path d="M22.8441 7.20065C22.6296 7.23549 22.4102 7.22557 22.1997 7.17152C21.9892 7.11746 21.7922 7.02043 21.621 6.88654C21.2809 6.61635 21.059 6.22463 21.0022 5.794C20.9454 5.36337 21.058 4.9275 21.3164 4.57834C21.4573 4.40023 21.6326 4.25226 21.8319 4.14325C22.0311 4.03423 22.2502 3.96639 22.4762 3.94374C22.7022 3.9211 22.9304 3.94412 23.1473 4.01144C23.3642 4.07876 23.5654 4.18901 23.7388 4.33562L23.2915 4.92576C23.0725 4.75605 22.7956 4.67914 22.5205 4.71159C22.4169 4.72445 22.3175 4.76015 22.2295 4.81612C22.1414 4.87209 22.0669 4.94692 22.0113 5.03522C21.8951 5.22829 21.8484 5.45519 21.8787 5.67844C21.9089 5.90169 22.0145 6.10793 22.1778 6.26309C22.2597 6.33437 22.3564 6.38669 22.4609 6.41631C22.5654 6.44593 22.6751 6.45211 22.7822 6.43442C23.0548 6.38528 23.2973 6.23157 23.458 6.00609L24.0482 6.48201C23.9201 6.67522 23.759 6.84437 23.5723 6.98172C23.3494 7.10923 23.1003 7.18411 22.8441 7.20065Z" fill="#E1251B"/>
<path d="M25.2617 3.80734L27.7888 3.96915L27.6032 7.13877L26.7132 7.08642L26.8607 4.70683L26.0612 4.65924C26.0433 5.00994 26.0068 5.35944 25.9517 5.70626C25.9126 5.94084 25.8537 6.17169 25.7756 6.39634C25.7242 6.54761 25.6378 6.68459 25.5234 6.79611C25.4286 6.88238 25.3143 6.94443 25.1903 6.97696C25.05 6.99987 24.907 6.99987 24.7667 6.97696C24.615 6.96983 24.4648 6.94426 24.3193 6.90081L24.4145 6.18694L24.6001 6.21549C24.6784 6.22247 24.7568 6.20411 24.8238 6.16314C24.9093 6.08159 24.9703 5.97773 24.9999 5.86331C25.0761 5.62849 25.1256 5.38583 25.1474 5.13991C25.1903 4.81153 25.2236 4.37369 25.2617 3.80734Z" fill="#E1251B"/>
<path d="M28.7315 8.36189C28.4596 8.29291 28.2124 8.14953 28.0176 7.94785L28.4935 7.40054C28.5862 7.50167 28.7046 7.57569 28.8362 7.6147C28.9 7.63278 28.9678 7.63108 29.0307 7.60984C29.0936 7.5886 29.1485 7.54882 29.1883 7.49572L28.7933 4.12146L29.7071 4.36418L29.8594 6.62003L31.0682 4.71636L31.9677 4.95432L29.9784 7.77175C29.8345 7.99971 29.6388 8.19049 29.4073 8.32858C29.1937 8.42208 28.9532 8.43393 28.7315 8.36189Z" fill="#E1251B"/>
<path d="M33.995 9.40414L33.2049 8.97581L33.5952 8.25717L33.4762 7.69083L32.177 8.41423L31.3013 7.93831L33.2335 6.88653L32.8385 5.1875L33.738 5.66342L34.0664 7.37197L34.7136 6.18693L35.5036 6.66285L34.8611 7.83837L36.4745 7.19112L37.3835 7.66704L35.7416 8.25242L35.8986 10.4416L35.0277 9.99428L34.9278 8.50465L34.3852 8.71406L33.995 9.40414Z" fill="#E1251B"/>
<path d="M37.1218 11.7933C36.9442 11.6505 36.8005 11.4702 36.7009 11.2653C36.6013 11.0604 36.5484 10.836 36.5459 10.6082C36.5876 10.1073 36.813 9.63943 37.1789 9.29469C37.3038 9.15037 37.4373 9.01369 37.5786 8.8854C37.7153 8.76552 37.8618 8.65727 38.0165 8.56177C38.1629 8.46692 38.3236 8.39622 38.4924 8.35237C38.6667 8.31646 38.8464 8.31646 39.0207 8.35237C39.229 8.39417 39.4276 8.4749 39.6061 8.59033L41.0624 9.49458L40.6911 10.1133L39.1872 9.19951C39.0359 9.07516 38.8447 9.00959 38.6489 9.01484C38.4531 9.02008 38.2657 9.09579 38.1212 9.22806C38.3005 9.18065 38.4891 9.18065 38.6685 9.22806C38.9151 9.29725 39.1407 9.42642 39.3253 9.60404C39.4703 9.73789 39.5874 9.89906 39.67 10.0783C39.7526 10.2575 39.799 10.4513 39.8065 10.6485C39.814 10.8457 39.7825 11.0425 39.7138 11.2275C39.6451 11.4125 39.5406 11.5821 39.4062 11.7266C39.2674 11.8849 39.0971 12.0124 38.9061 12.101C38.7151 12.1895 38.5077 12.237 38.2973 12.2406C38.0814 12.2486 37.8661 12.2131 37.6641 12.1362C37.4622 12.0594 37.2778 11.9427 37.1218 11.7933ZM37.6453 11.2317C37.719 11.3032 37.8075 11.3577 37.9045 11.3914C38.0015 11.4251 38.1047 11.4372 38.2069 11.4268C38.4189 11.4025 38.6148 11.3015 38.7577 11.1428C38.9005 10.9842 38.9805 10.7789 38.9826 10.5654C38.9822 10.4627 38.9607 10.3611 38.9194 10.2671C38.878 10.1731 38.8177 10.0886 38.7422 10.0189C38.6667 9.94925 38.5777 9.89589 38.4807 9.86217C38.3837 9.82846 38.2807 9.81511 38.1783 9.82296C37.9643 9.84692 37.7672 9.95056 37.6262 10.1133C37.5523 10.1887 37.4941 10.278 37.4549 10.376C37.4157 10.474 37.3963 10.5788 37.3978 10.6844C37.3977 10.788 37.4198 10.8904 37.4625 10.9847C37.5051 11.0791 37.5675 11.1633 37.6453 11.2317Z" fill="#E1251B"/>
<path d="M38.7349 13.1972L41.3429 11.4221L41.8188 12.1597L40.9622 12.7451L41.3239 13.2829C41.5227 13.5417 41.6268 13.8609 41.6189 14.1871C41.6087 14.3343 41.5625 14.4768 41.4845 14.602C41.4066 14.7273 41.2991 14.8316 41.1716 14.9058C41.0555 14.9951 40.9208 15.0573 40.7775 15.0878C40.6342 15.1183 40.4859 15.1163 40.3435 15.0819C40.0335 14.9903 39.7698 14.7845 39.6058 14.506L38.7349 13.1972ZM40.7385 13.5875L40.4244 13.1116L39.82 13.5209L40.1388 13.9968C40.3054 14.2395 40.491 14.2871 40.7004 14.1491C40.7421 14.1228 40.7771 14.0872 40.8027 14.045C40.8283 14.0029 40.8438 13.9555 40.8479 13.9064C40.8473 13.791 40.8088 13.679 40.7385 13.5875ZM40.5434 15.8529L43.1514 14.0824L43.6273 14.8201L41.024 16.5953L40.5434 15.8529Z" fill="#E1251B"/>
<path d="M5.75361 26.6657C6.67355 26.6657 7.41932 25.92 7.41932 25C7.41932 24.0801 6.67355 23.3343 5.75361 23.3343C4.83366 23.3343 4.08789 24.0801 4.08789 25C4.08789 25.92 4.83366 26.6657 5.75361 26.6657Z" fill="#E1251B"/>
<path d="M44.1511 26.6657C45.071 26.6657 45.8168 25.92 45.8168 25C45.8168 24.0801 45.071 23.3343 44.1511 23.3343C43.2311 23.3343 42.4854 24.0801 42.4854 25C42.4854 25.92 43.2311 26.6657 44.1511 26.6657Z" fill="#E1251B"/>
</svg>
